#define shade_12_width 12
#define shade_12_height 12
static unsigned char shade_12_bits[] = {
   0xf0, 0x00, 0xfc, 0x03, 0xfe, 0x07, 0xfe, 0x07, 0xff, 0x0f, 0x03, 0x0c,
   0x03, 0x0c, 0xff, 0x0f, 0xfe, 0x07, 0xfe, 0x07, 0xfc, 0x03, 0xf0, 0x00 };
