#define close9_width 12
#define close9_height 12
static unsigned char close9_bits[] = {
   0xf0, 0x00, 0xfc, 0x03, 0xfe, 0x07, 0xf6, 0x06, 0x6f, 0x0f, 0x9f, 0x0f,
   0x9f, 0x0f, 0x6f, 0x0f, 0xf6, 0x06, 0xfe, 0x07, 0xfc, 0x03, 0xf0, 0x00 };
