#define menu_width 12
#define menu_height 12
static unsigned char menu_bits[] = {
   0x00, 0x00, 0x00, 0x00, 0xfe, 0x07, 0xfe, 0x07, 0x00, 0x00, 0xfe, 0x07,
   0xfe, 0x07, 0x00, 0x00, 0xfe, 0x07, 0xfe, 0x07, 0x00, 0x00, 0x00, 0x00 };
