#define close_width 12
#define close_height 12
static unsigned char close_bits[] = {
   0xfc, 0x03, 0xfe, 0x07, 0xf3, 0x0c, 0x63, 0x0c, 0x07, 0x0e, 0x0f, 0x0f,
   0x0f, 0x0f, 0x07, 0x0e, 0x63, 0x0c, 0xf3, 0x0c, 0xfe, 0x07, 0xfc, 0x03 };
