#define desk_width 12
#define desk_height 12
static unsigned char desk_bits[] = {
   0xfc, 0x03, 0xfe, 0x07, 0x9f, 0x0f, 0x9f, 0x0f, 0x9f, 0x0f, 0x03, 0x0c,
   0x03, 0x0c, 0x9f, 0x0f, 0x9f, 0x0f, 0x9f, 0x0f, 0xfe, 0x07, 0xfc, 0x03 };
