#define iconify_width 12
#define iconify_height 12
static unsigned char iconify_bits[] = {
   0xfc, 0x03, 0xfe, 0x07, 0xff, 0x0f, 0xff, 0x0f, 0xff, 0x0f, 0x03, 0x0c,
   0x03, 0x0c, 0xff, 0x0f, 0xff, 0x0f, 0xff, 0x0f, 0xfe, 0x07, 0xfc, 0x03 };
