#define max_width 12
#define max_height 12
static unsigned char max_bits[] = {
   0xfc, 0x03, 0xfe, 0x07, 0x03, 0x0c, 0x03, 0x0c, 0x03, 0x0c, 0xfb, 0x0d,
   0xfb, 0x0d, 0xfb, 0x0d, 0x03, 0x0c, 0x03, 0x0c, 0xfe, 0x07, 0xfc, 0x03 };
