<?xml version="1.0" encoding="UTF-8" standalone="no"?>
<!-- Created with Inkscape (http://www.inkscape.org/) -->

<svg
   xmlns:dc="http://purl.org/dc/elements/1.1/"
   xmlns:cc="http://creativecommons.org/ns#"
   xmlns:rdf="http://www.w3.org/1999/02/22-rdf-syntax-ns#"
   xmlns:svg="http://www.w3.org/2000/svg"
   xmlns="http://www.w3.org/2000/svg"
   xmlns:xlink="http://www.w3.org/1999/xlink"
   xmlns:sodipodi="http://sodipodi.sourceforge.net/DTD/sodipodi-0.dtd"
   xmlns:inkscape="http://www.inkscape.org/namespaces/inkscape"
   width="48"
   height="48"
   id="svg2"
   version="1.1"
   inkscape:version="0.48.4 r9939"
   sodipodi:docname="jsm-fonts.svg">
  <defs
     id="defs4">
    <linearGradient
       id="linearGradient7622">
      <stop
         style="stop-color:#000000;stop-opacity:1;"
         offset="0"
         id="stop7624" />
      <stop
         id="stop7630"
         offset="0.5"
         style="stop-color:#000000;stop-opacity:0.251" />
      <stop
         style="stop-color:#000000;stop-opacity:1;"
         offset="1"
         id="stop7626" />
    </linearGradient>
    <linearGradient
       id="linearGradient7251">
      <stop
         style="stop-color:#fc93dc;stop-opacity:1;"
         offset="0"
         id="stop7253" />
      <stop
         style="stop-color:#da72d3;stop-opacity:1"
         offset="1"
         id="stop7255" />
    </linearGradient>
    <radialGradient
       cx="4.9929786"
       cy="43.5"
       r="2.5"
       fx="4.9929786"
       fy="43.5"
       id="radialGradient3337-2-2"
       xlink:href="#linearGradient3688-166-749-4-0-3-8"
       gradientUnits="userSpaceOnUse"
       gradientTransform="matrix(2.003784,0,0,1.4,27.98813,-17.4)" />
    <linearGradient
       id="linearGradient3688-166-749-4-0-3-8">
      <stop
         id="stop2883-4-0-1-8"
         style="stop-color:#181818;stop-opacity:1"
         offset="0" />
      <stop
         id="stop2885-9-2-9-6"
         style="stop-color:#181818;stop-opacity:0"
         offset="1" />
    </linearGradient>
    <radialGradient
       cx="4.9929786"
       cy="43.5"
       r="2.5"
       fx="4.9929786"
       fy="43.5"
       id="radialGradient3339-1-4"
       xlink:href="#linearGradient3688-464-309-9-2-4-2"
       gradientUnits="userSpaceOnUse"
       gradientTransform="matrix(2.003784,0,0,1.4,-20.01187,-104.4)" />
    <linearGradient
       id="linearGradient3688-464-309-9-2-4-2">
      <stop
         id="stop2889-7-9-6-9"
         style="stop-color:#181818;stop-opacity:1"
         offset="0" />
      <stop
         id="stop2891-6-6-1-7"
         style="stop-color:#181818;stop-opacity:0"
         offset="1" />
    </linearGradient>
    <linearGradient
       y2="39.999443"
       x2="25.058096"
       y1="47.027729"
       x1="25.058096"
       gradientUnits="userSpaceOnUse"
       id="linearGradient21034"
       xlink:href="#linearGradient3702-501-757-8-4-1-1"
       inkscape:collect="always" />
    <linearGradient
       id="linearGradient3702-501-757-8-4-1-1">
      <stop
         id="stop2895-8-9-9-1"
         style="stop-color:#181818;stop-opacity:0"
         offset="0" />
      <stop
         id="stop2897-7-8-7-7"
         style="stop-color:#181818;stop-opacity:1"
         offset="0.5" />
      <stop
         id="stop2899-4-5-1-5"
         style="stop-color:#181818;stop-opacity:0"
         offset="1" />
    </linearGradient>
    <radialGradient
       inkscape:collect="always"
       xlink:href="#linearGradient3671-580-6"
       id="radialGradient20986"
       gradientUnits="userSpaceOnUse"
       gradientTransform="matrix(0,9.1402449,-11.221301,0,136.56277,926.47473)"
       cx="7.1448598"
       cy="10.031169"
       fx="7.1448598"
       fy="10.031169"
       r="12.671875" />
    <linearGradient
       id="linearGradient3671-580-6">
      <stop
         id="stop4088-6"
         style="stop-color:#fcda93;stop-opacity:1"
         offset="0" />
      <stop
         id="stop4090-4"
         style="stop-color:#dab572;stop-opacity:1"
         offset="0.26238" />
      <stop
         id="stop4092-6"
         style="stop-color:#ab833f;stop-opacity:1"
         offset="0.704952" />
      <stop
         id="stop4094-2"
         style="stop-color:#584a2b;stop-opacity:1"
         offset="1" />
    </linearGradient>
    <linearGradient
       inkscape:collect="always"
       xlink:href="#linearGradient3924-2-2-5-8"
       id="linearGradient20983"
       gradientUnits="userSpaceOnUse"
       gradientTransform="translate(-2.094513e-6,1005.3622)"
       x1="23.99999"
       y1="4.999989"
       x2="23.99999"
       y2="43" />
    <linearGradient
       id="linearGradient3924-2-2-5-8">
      <stop
         id="stop3926-9-4-9-6"
         style="stop-color:#ffffff;stop-opacity:1"
         offset="0" />
      <stop
         id="stop3928-9-8-6-5"
         style="stop-color:#ffffff;stop-opacity:0.23529412"
         offset="0.06316455" />
      <stop
         id="stop3930-3-5-1-7"
         style="stop-color:#ffffff;stop-opacity:0.15686275"
         offset="0.95056331" />
      <stop
         id="stop3932-8-0-4-8"
         style="stop-color:#ffffff;stop-opacity:0.39215687"
         offset="1" />
    </linearGradient>
    <linearGradient
       id="linearGradient3707-662-8">
      <stop
         id="stop4098-9"
         style="stop-color:#542f57;stop-opacity:1"
         offset="0" />
      <stop
         id="stop4100-6"
         style="stop-color:#bb5ca4;stop-opacity:1"
         offset="1" />
    </linearGradient>
    <linearGradient
       gradientTransform="translate(-2e-7,945.36217)"
       inkscape:collect="always"
       xlink:href="#linearGradient25914"
       id="linearGradient26143"
       x1="32"
       y1="56"
       x2="32"
       y2="8"
       gradientUnits="userSpaceOnUse" />
    <linearGradient
       id="linearGradient25914">
      <stop
         style="stop-color:#000000;stop-opacity:1;"
         offset="0"
         id="stop25916" />
      <stop
         id="stop25922"
         offset="0.5"
         style="stop-color:#000000;stop-opacity:0.25098041;" />
      <stop
         style="stop-color:#000000;stop-opacity:1;"
         offset="1"
         id="stop25918" />
    </linearGradient>
    <linearGradient
       inkscape:collect="always"
       xlink:href="#linearGradient3671-580-6"
       id="linearGradient24496"
       x1="19.76383"
       y1="30.5"
       x2="52.036171"
       y2="30.5"
       gradientUnits="userSpaceOnUse" />
    <linearGradient
       id="linearGradient7833">
      <stop
         id="stop7835"
         style="stop-color:#fc93dc;stop-opacity:1"
         offset="0" />
      <stop
         id="stop7837"
         style="stop-color:#da72d3;stop-opacity:1"
         offset="0.26238" />
      <stop
         id="stop7839"
         style="stop-color:#a33fab;stop-opacity:1"
         offset="0.704952" />
      <stop
         id="stop7841"
         style="stop-color:#502b58;stop-opacity:1"
         offset="1" />
    </linearGradient>
    <linearGradient
       inkscape:collect="always"
       xlink:href="#linearGradient3671-580-6"
       id="linearGradient24500"
       gradientUnits="userSpaceOnUse"
       x1="35.900002"
       y1="14.190327"
       x2="35.900002"
       y2="46.809681" />
    <linearGradient
       id="linearGradient7844">
      <stop
         id="stop7846"
         style="stop-color:#fc93dc;stop-opacity:1"
         offset="0" />
      <stop
         id="stop7848"
         style="stop-color:#da72d3;stop-opacity:1"
         offset="0.26238" />
      <stop
         id="stop7850"
         style="stop-color:#a33fab;stop-opacity:1"
         offset="0.704952" />
      <stop
         id="stop7852"
         style="stop-color:#502b58;stop-opacity:1"
         offset="1" />
    </linearGradient>
    <linearGradient
       inkscape:collect="always"
       xlink:href="#linearGradient3671-580-6"
       id="linearGradient26148"
       gradientUnits="userSpaceOnUse"
       x1="32"
       y1="24"
       x2="32"
       y2="48"
       gradientTransform="translate(0,988.36218)" />
    <linearGradient
       id="linearGradient7855">
      <stop
         id="stop7857"
         style="stop-color:#fc93dc;stop-opacity:1"
         offset="0" />
      <stop
         id="stop7859"
         style="stop-color:#da72d3;stop-opacity:1"
         offset="0.26238" />
      <stop
         id="stop7861"
         style="stop-color:#a33fab;stop-opacity:1"
         offset="0.704952" />
      <stop
         id="stop7863"
         style="stop-color:#502b58;stop-opacity:1"
         offset="1" />
    </linearGradient>
    <linearGradient
       inkscape:collect="always"
       xlink:href="#linearGradient3702-501-757-8-4-1-1"
       id="linearGradient6326"
       gradientUnits="userSpaceOnUse"
       x1="25.058096"
       y1="47.027729"
       x2="25.058096"
       y2="39.999443"
       gradientTransform="matrix(1.2857143,0,0,0.57142854,-6.8571431,1023.5052)" />
    <radialGradient
       inkscape:collect="always"
       xlink:href="#linearGradient3688-464-309-9-2-4-2"
       id="radialGradient6329"
       gradientUnits="userSpaceOnUse"
       gradientTransform="matrix(1.6030272,0,0,0.8,-14.009496,-1083.1623)"
       cx="4.9929786"
       cy="43.5"
       fx="4.9929786"
       fy="43.5"
       r="2.5" />
    <radialGradient
       inkscape:collect="always"
       xlink:href="#linearGradient3688-166-749-4-0-3-8"
       id="radialGradient6332"
       gradientUnits="userSpaceOnUse"
       gradientTransform="matrix(1.6030272,0,0,0.8,33.990503,1013.5623)"
       cx="4.9929786"
       cy="43.5"
       fx="4.9929786"
       fy="43.5"
       r="2.5" />
  </defs>
  <sodipodi:namedview
     id="base"
     pagecolor="#ffffff"
     bordercolor="#666666"
     borderopacity="1.0"
     inkscape:pageopacity="0.0"
     inkscape:pageshadow="2"
     inkscape:zoom="1"
     inkscape:cx="74.039114"
     inkscape:cy="14.098663"
     inkscape:document-units="px"
     inkscape:current-layer="layer1"
     showgrid="false"
     inkscape:showpageshadow="false"
     inkscape:window-width="1364"
     inkscape:window-height="701"
     inkscape:window-x="1024"
     inkscape:window-y="27"
     inkscape:window-maximized="1"
     inkscape:snap-bbox="true"
     inkscape:bbox-paths="true"
     inkscape:bbox-nodes="true"
     inkscape:snap-bbox-edge-midpoints="true"
     inkscape:snap-bbox-midpoints="true">
    <inkscape:grid
       type="xygrid"
       id="grid6334"
       empspacing="12"
       visible="true"
       enabled="true"
       snapvisiblegridlinesonly="true" />
  </sodipodi:namedview>
  <metadata
     id="metadata7">
    <rdf:RDF>
      <cc:Work
         rdf:about="">
        <dc:format>image/svg+xml</dc:format>
        <dc:type
           rdf:resource="http://purl.org/dc/dcmitype/StillImage" />
        <dc:title></dc:title>
      </cc:Work>
    </rdf:RDF>
  </metadata>
  <g
     inkscape:label="Layer 1"
     inkscape:groupmode="layer"
     id="layer1"
     transform="translate(0,-1004.3622)">
    <g
       id="g6336"
       style="opacity:0.6">
      <rect
         style="opacity:1;fill:url(#radialGradient6332);fill-opacity:1;stroke:none"
         id="rect2801-5-5-7-9"
         y="1046.3623"
         x="42"
         height="4"
         width="4" />
      <rect
         style="opacity:1;fill:url(#radialGradient6329);fill-opacity:1;stroke:none"
         id="rect3696-3-0-3-7"
         transform="scale(-1,-1)"
         y="-1050.3623"
         x="-6"
         height="4"
         width="4" />
      <rect
         style="opacity:1;fill:url(#linearGradient6326);fill-opacity:1;stroke:none"
         id="rect3700-5-6-8-4"
         y="1046.3623"
         x="6"
         height="4"
         width="36" />
    </g>
    <rect
       style="color:#000000;fill:url(#radialGradient20986);fill-opacity:1.0;fill-rule:nonzero;stroke:none;stroke-width:0.99999994000000003;marker:none;visibility:visible;display:inline;overflow:visible;enable-background:accumulate"
       id="rect5505-21-3-8-5-2"
       y="1009.8622"
       x="4.5"
       ry="2"
       rx="2"
       height="39"
       width="39" />
    <rect
       style="opacity:0.3;fill:none;stroke:url(#linearGradient20983);stroke-width:1;stroke-linecap:round;stroke-linejoin:round;stroke-miterlimit:4;stroke-opacity:1;stroke-dasharray:none;stroke-dashoffset:0"
       id="rect6741-5-0-2-3"
       y="1010.8622"
       x="5.499999"
       ry="1"
       rx="1"
       height="37"
       width="37" />
    <rect
       style="opacity:0.59999999999999998;color:#000000;fill:none;stroke:#584a2b;stroke-width:1;stroke-linecap:round;stroke-linejoin:round;stroke-miterlimit:4;stroke-opacity:1;stroke-dasharray:none;stroke-dashoffset:0;marker:none;visibility:visible;display:inline;overflow:visible;enable-background:accumulate"
       id="rect5505-21-3-8-9-1-1"
       y="4.499999"
       x="-1048.8622"
       ry="2"
       rx="2"
       height="39"
       width="39"
       transform="matrix(0,-1,1,0,0,0)" />
    <path
       inkscape:connector-curvature="0"
       id="path4132"
       d="m 18.749223,1013.8888 c -0.14808,0 -0.33556,0.011 -0.5,0.062 0,0 -0.1475,0.2662 -0.3125,1.0937 -0.20188,1.0121 -0.61254,1.2727 -1.125,1.5625 l 0,0.031 c -0.1172,0.03 -0.22803,0.055 -0.34375,0.094 -0.58774,0.036 -1.0919,0.051 -1.8125,-0.6875 -0.58894,-0.604 -0.84375,-0.7812 -0.84375,-0.7812 -0.3317,0.092 -0.6875,0.375 -0.6875,0.375 0,0 -0.34082,0.2565 -0.5,0.5625 0,0 0.12523,0.2984 0.59375,1 0.57288,0.8584 0.46998,1.3391 0.3125,1.9062 -0.0616,0.1048 -0.1331,0.2043 -0.1875,0.3125 -0.38974,0.4414 -0.74931,0.7941 -1.78125,0.7813 -0.84354,-0.01 -1.125,0.094 -1.125,0.094 -0.1698,0.3005 -0.21875,0.7188 -0.21875,0.7188 0,0 -0.0423,0.4211 0.0625,0.75 0,0 0.26623,0.1477 1.09375,0.3125 1.01202,0.2019 1.2725,0.6127 1.5625,1.125 0.0306,0.1174 0.0866,0.2282 0.125,0.3437 0.0366,0.5877 0.02009,1.092 -0.71875,1.8125 -0.604,0.5891 -0.75,0.8438 -0.75,0.8438 0.0926,0.3324 0.34375,0.6875 0.34375,0.6875 0,0 0.28781,0.3096 0.59375,0.4687 0,0 0.2983,-0.094 1,-0.5625 0.85846,-0.5728 1.33897,-0.4696 1.90625,-0.3125 0.1054,0.062 0.20408,0.1335 0.3125,0.1875 0.44138,0.3898 0.79407,0.7494 0.78125,1.7813 -0.01,0.8436 0.0625,1.125 0.0625,1.125 0.30052,0.1696 0.75,0.2187 0.75,0.2187 0,0 0.42128,0.041 0.75,-0.062 0,0 0.11627,-0.2661 0.28125,-1.0937 0.20228,-1.012 0.64421,-1.2725 1.15625,-1.5625 0.1172,-0.03 0.22813,-0.087 0.34375,-0.125 0.5877,-0.036 1.09192,-0.021 1.8125,0.7187 0.58896,0.604 0.84375,0.75 0.84375,0.75 0.33254,-0.093 0.65625,-0.375 0.65625,-0.375 0,0 0.34092,-0.2565 0.5,-0.5625 0,0 -0.0937,-0.2983 -0.5625,-1 -0.5729,-0.8584 -0.46968,-1.3391 -0.3125,-1.9062 0.0616,-0.1052 0.1333,-0.2041 0.1875,-0.3125 0.38982,-0.4413 0.71806,-0.7942 1.75,-0.7813 0.84368,0.01 1.15625,-0.062 1.15625,-0.062 0.1696,-0.3006 0.21875,-0.75 0.21875,-0.75 0,0 0.0421,-0.4209 -0.0625,-0.75 0,0 -0.26623,-0.1477 -1.09375,-0.3125 -1.01216,-0.2019 -1.30385,-0.6126 -1.59375,-1.125 -0.0304,-0.1172 -0.05475,-0.2282 -0.09375,-0.3437 -0.0364,-0.5875 -0.05154,-1.0919 0.6875,-1.8125 0.60404,-0.589 0.78125,-0.8438 0.78125,-0.8438 -0.0924,-0.3324 -0.375,-0.6562 -0.375,-0.6562 0,0 -0.25652,-0.341 -0.5625,-0.5 0,0 -0.29804,0.094 -1,0.5625 -0.85842,0.5729 -1.33883,0.47 -1.90625,0.3125 -0.1046,-0.062 -0.23533,-0.1335 -0.34375,-0.1875 -0.44124,-0.3898 -0.76294,-0.7493 -0.75,-1.7813 0.01,-0.8436 -0.09375,-1.125 -0.09375,-1.125 -0.30036,-0.1698 -0.71875,-0.2187 -0.71875,-0.2187 0,0 -0.10192,-0 -0.25,0 z m -0.90625,4.2187 c 1.196616,-0.1038 2.40595,0.3713 3.21875,1.375 1.30048,1.606 1.07463,3.9496 -0.53125,5.25 -1.60594,1.3005 -3.98075,1.0747 -5.28125,-0.5312 -1.30048,-1.606 -1.04338,-3.9808 0.5625,-5.2813 0.60222,-0.4877 1.31328,-0.7502 2.03125,-0.8125 z m 8.5,7 c -0.184575,0.014 -0.3125,0.031 -0.3125,0.031 0,0 -0.55105,0.1307 -0.90625,0.375 0,0 -0.0433,0.3568 0.0625,1.4062 0.1286,1.2836 -0.27453,1.7789 -0.78125,2.3125 -0.1288,0.079 -0.25078,0.1615 -0.375,0.25 -0.68928,0.2581 -1.30614,0.4323 -2.4375,-0.1875 -0.92476,-0.5068 -1.28125,-0.5937 -1.28125,-0.5937 -0.36304,0.2307 -0.65625,0.6875 -0.65625,0.6875 0,0 -0.32783,0.451 -0.40625,0.875 0,0 0.2461,0.3012 1.0625,0.9687 0.99854,0.8167 1.04344,1.4519 1.0625,2.1875 -0.0354,0.1478 -0.06855,0.2883 -0.09375,0.4375 -0.30458,0.67 -0.57428,1.2007 -1.8125,1.5625 -1.01222,0.2955 -1.34375,0.5 -1.34375,0.5 -0.0932,0.4212 0,0.9688 0,0.9688 0,0 0.09963,0.5198 0.34375,0.875 0,0 0.38812,0.075 1.4375,-0.031 1.28354,-0.1284 1.74733,0.2749 2.28125,0.7813 0.0792,0.129 0.16188,0.2509 0.25,0.375 0.25864,0.6892 0.43218,1.275 -0.1875,2.4062 -0.50672,0.925 -0.59375,1.3125 -0.59375,1.3125 0.23204,0.3637 0.6875,0.6563 0.6875,0.6563 0,0 0.4512,0.2967 0.875,0.375 0,0 0.30131,-0.2146 0.96875,-1.0313 0.81684,-0.9985 1.45202,-1.0429 2.1875,-1.0625 l 0,-0.031 c 0.1484,0.035 0.28822,0.069 0.4375,0.094 l 0,0.031 c 0.67008,0.3047 1.23199,0.5743 1.59375,1.8125 0.2956,1.0123 0.5,1.3437 0.5,1.3437 0.4212,0.093 0.9375,0 0.9375,0 0,0 0.52004,-0.099 0.875,-0.3437 0,0 0.07255,-0.3878 -0.03125,-1.4375 -0.1282,-1.2836 0.27511,-1.7475 0.78125,-2.2813 l 0,-0.031 c 0.129,-0.079 0.25082,-0.1619 0.375,-0.25 0.68914,-0.2584 1.27485,-0.4322 2.40625,0.1875 0.92478,0.5068 1.3125,0.5937 1.3125,0.5937 0.36366,-0.2323 0.65625,-0.6875 0.65625,-0.6875 0,0 0.29664,-0.4198 0.375,-0.8437 0,0 -0.21435,-0.3325 -1.03125,-1 -0.99856,-0.8167 -1.04316,-1.4209 -1.0625,-2.1563 0.0354,-0.1484 0.06895,-0.3195 0.09375,-0.4687 0.30468,-0.6699 0.57426,-1.2007 1.8125,-1.5625 1.01238,-0.2956 1.34375,-0.5 1.34375,-0.5 0.0928,-0.4212 0,-0.9375 0,-0.9375 0,0 -0.09945,-0.551 -0.34375,-0.9063 0,0 -0.38804,-0.043 -1.4375,0.062 -1.28362,0.1286 -1.74743,-0.2746 -2.28125,-0.7812 -0.0792,-0.129 -0.16108,-0.2511 -0.25,-0.375 l 0,-0.031 c -0.258,-0.689 -0.46365,-1.2747 0.15625,-2.4062 0.50676,-0.9247 0.59375,-1.2813 0.59375,-1.2813 -0.23202,-0.3635 -0.65625,-0.6875 -0.65625,-0.6875 0,0 -0.4511,-0.2967 -0.875,-0.375 0,0 -0.33218,0.2458 -1,1.0625 -0.81674,0.9986 -1.42043,1.0434 -2.15625,1.0625 -0.1474,-0.036 -0.28812,-0.069 -0.4375,-0.094 -0.66992,-0.3048 -1.23209,-0.6054 -1.59375,-1.8438 -0.2958,-1.0122 -0.5,-1.3437 -0.5,-1.3437 -0.21056,-0.046 -0.440425,-0.045 -0.625,-0.031 z m 1.59375,5.1875 c 0.900821,-6e-4 1.790703,0.2709 2.59375,0.8125 2.14144,1.4445 2.72567,4.3274 1.28125,6.4688 -1.44442,2.1414 -4.35856,2.7257 -6.5,1.2812 -2.14142,-1.4444 -2.6944,-4.3586 -1.25,-6.5 0.90275,-1.3383 2.373632,-2.0613 3.875,-2.0625 z"
       style="fill:none;fill-opacity:1;stroke:#000000;display:inline;enable-background:new;stroke-opacity:1;stroke-width:6;stroke-miterlimit:4;stroke-dasharray:none;opacity:0.03000000000000000" />
    <path
       inkscape:connector-curvature="0"
       id="path4136"
       d="m 18.749223,1013.8888 c -0.14808,0 -0.33556,0.011 -0.5,0.062 0,0 -0.1475,0.2662 -0.3125,1.0937 -0.20188,1.0121 -0.61254,1.2727 -1.125,1.5625 l 0,0.031 c -0.1172,0.03 -0.22803,0.055 -0.34375,0.094 -0.58774,0.036 -1.0919,0.051 -1.8125,-0.6875 -0.58894,-0.604 -0.84375,-0.7812 -0.84375,-0.7812 -0.3317,0.092 -0.6875,0.375 -0.6875,0.375 0,0 -0.34082,0.2565 -0.5,0.5625 0,0 0.12523,0.2984 0.59375,1 0.57288,0.8584 0.46998,1.3391 0.3125,1.9062 -0.0616,0.1048 -0.1331,0.2043 -0.1875,0.3125 -0.38974,0.4414 -0.74931,0.7941 -1.78125,0.7813 -0.84354,-0.01 -1.125,0.094 -1.125,0.094 -0.1698,0.3005 -0.21875,0.7188 -0.21875,0.7188 0,0 -0.0423,0.4211 0.0625,0.75 0,0 0.26623,0.1477 1.09375,0.3125 1.01202,0.2019 1.2725,0.6127 1.5625,1.125 0.0306,0.1174 0.0866,0.2282 0.125,0.3437 0.0366,0.5877 0.02009,1.092 -0.71875,1.8125 -0.604,0.5891 -0.75,0.8438 -0.75,0.8438 0.0926,0.3324 0.34375,0.6875 0.34375,0.6875 0,0 0.28781,0.3096 0.59375,0.4687 0,0 0.2983,-0.094 1,-0.5625 0.85846,-0.5728 1.33897,-0.4696 1.90625,-0.3125 0.1054,0.062 0.20408,0.1335 0.3125,0.1875 0.44138,0.3898 0.79407,0.7494 0.78125,1.7813 -0.01,0.8436 0.0625,1.125 0.0625,1.125 0.30052,0.1696 0.75,0.2187 0.75,0.2187 0,0 0.42128,0.041 0.75,-0.062 0,0 0.11627,-0.2661 0.28125,-1.0937 0.20228,-1.012 0.64421,-1.2725 1.15625,-1.5625 0.1172,-0.03 0.22813,-0.087 0.34375,-0.125 0.5877,-0.036 1.09192,-0.021 1.8125,0.7187 0.58896,0.604 0.84375,0.75 0.84375,0.75 0.33254,-0.093 0.65625,-0.375 0.65625,-0.375 0,0 0.34092,-0.2565 0.5,-0.5625 0,0 -0.0937,-0.2983 -0.5625,-1 -0.5729,-0.8584 -0.46968,-1.3391 -0.3125,-1.9062 0.0616,-0.1052 0.1333,-0.2041 0.1875,-0.3125 0.38982,-0.4413 0.71806,-0.7942 1.75,-0.7813 0.84368,0.01 1.15625,-0.062 1.15625,-0.062 0.1696,-0.3006 0.21875,-0.75 0.21875,-0.75 0,0 0.0421,-0.4209 -0.0625,-0.75 0,0 -0.26623,-0.1477 -1.09375,-0.3125 -1.01216,-0.2019 -1.30385,-0.6126 -1.59375,-1.125 -0.0304,-0.1172 -0.05475,-0.2282 -0.09375,-0.3437 -0.0364,-0.5875 -0.05154,-1.0919 0.6875,-1.8125 0.60404,-0.589 0.78125,-0.8438 0.78125,-0.8438 -0.0924,-0.3324 -0.375,-0.6562 -0.375,-0.6562 0,0 -0.25652,-0.341 -0.5625,-0.5 0,0 -0.29804,0.094 -1,0.5625 -0.85842,0.5729 -1.33883,0.47 -1.90625,0.3125 -0.1046,-0.062 -0.23533,-0.1335 -0.34375,-0.1875 -0.44124,-0.3898 -0.76294,-0.7493 -0.75,-1.7813 0.01,-0.8436 -0.09375,-1.125 -0.09375,-1.125 -0.30036,-0.1698 -0.71875,-0.2187 -0.71875,-0.2187 0,0 -0.10192,-0 -0.25,0 z m -0.90625,4.2187 c 1.196616,-0.1038 2.40595,0.3713 3.21875,1.375 1.30048,1.606 1.07463,3.9496 -0.53125,5.25 -1.60594,1.3005 -3.98075,1.0747 -5.28125,-0.5312 -1.30048,-1.606 -1.04338,-3.9808 0.5625,-5.2813 0.60222,-0.4877 1.31328,-0.7502 2.03125,-0.8125 z m 8.5,7 c -0.184575,0.014 -0.3125,0.031 -0.3125,0.031 0,0 -0.55105,0.1307 -0.90625,0.375 0,0 -0.0433,0.3568 0.0625,1.4062 0.1286,1.2836 -0.27453,1.7789 -0.78125,2.3125 -0.1288,0.079 -0.25078,0.1615 -0.375,0.25 -0.68928,0.2581 -1.30614,0.4323 -2.4375,-0.1875 -0.92476,-0.5068 -1.28125,-0.5937 -1.28125,-0.5937 -0.36304,0.2307 -0.65625,0.6875 -0.65625,0.6875 0,0 -0.32783,0.451 -0.40625,0.875 0,0 0.2461,0.3012 1.0625,0.9687 0.99854,0.8167 1.04344,1.4519 1.0625,2.1875 -0.0354,0.1478 -0.06855,0.2883 -0.09375,0.4375 -0.30458,0.67 -0.57428,1.2007 -1.8125,1.5625 -1.01222,0.2955 -1.34375,0.5 -1.34375,0.5 -0.0932,0.4212 0,0.9688 0,0.9688 0,0 0.09963,0.5198 0.34375,0.875 0,0 0.38812,0.075 1.4375,-0.031 1.28354,-0.1284 1.74733,0.2749 2.28125,0.7813 0.0792,0.129 0.16188,0.2509 0.25,0.375 0.25864,0.6892 0.43218,1.275 -0.1875,2.4062 -0.50672,0.925 -0.59375,1.3125 -0.59375,1.3125 0.23204,0.3637 0.6875,0.6563 0.6875,0.6563 0,0 0.4512,0.2967 0.875,0.375 0,0 0.30131,-0.2146 0.96875,-1.0313 0.81684,-0.9985 1.45202,-1.0429 2.1875,-1.0625 l 0,-0.031 c 0.1484,0.035 0.28822,0.069 0.4375,0.094 l 0,0.031 c 0.67008,0.3047 1.23199,0.5743 1.59375,1.8125 0.2956,1.0123 0.5,1.3437 0.5,1.3437 0.4212,0.093 0.9375,0 0.9375,0 0,0 0.52004,-0.099 0.875,-0.3437 0,0 0.07255,-0.3878 -0.03125,-1.4375 -0.1282,-1.2836 0.27511,-1.7475 0.78125,-2.2813 l 0,-0.031 c 0.129,-0.079 0.25082,-0.1619 0.375,-0.25 0.68914,-0.2584 1.27485,-0.4322 2.40625,0.1875 0.92478,0.5068 1.3125,0.5937 1.3125,0.5937 0.36366,-0.2323 0.65625,-0.6875 0.65625,-0.6875 0,0 0.29664,-0.4198 0.375,-0.8437 0,0 -0.21435,-0.3325 -1.03125,-1 -0.99856,-0.8167 -1.04316,-1.4209 -1.0625,-2.1563 0.0354,-0.1484 0.06895,-0.3195 0.09375,-0.4687 0.30468,-0.6699 0.57426,-1.2007 1.8125,-1.5625 1.01238,-0.2956 1.34375,-0.5 1.34375,-0.5 0.0928,-0.4212 0,-0.9375 0,-0.9375 0,0 -0.09945,-0.551 -0.34375,-0.9063 0,0 -0.38804,-0.043 -1.4375,0.062 -1.28362,0.1286 -1.74743,-0.2746 -2.28125,-0.7812 -0.0792,-0.129 -0.16108,-0.2511 -0.25,-0.375 l 0,-0.031 c -0.258,-0.689 -0.46365,-1.2747 0.15625,-2.4062 0.50676,-0.9247 0.59375,-1.2813 0.59375,-1.2813 -0.23202,-0.3635 -0.65625,-0.6875 -0.65625,-0.6875 0,0 -0.4511,-0.2967 -0.875,-0.375 0,0 -0.33218,0.2458 -1,1.0625 -0.81674,0.9986 -1.42043,1.0434 -2.15625,1.0625 -0.1474,-0.036 -0.28812,-0.069 -0.4375,-0.094 -0.66992,-0.3048 -1.23209,-0.6054 -1.59375,-1.8438 -0.2958,-1.0122 -0.5,-1.3437 -0.5,-1.3437 -0.21056,-0.046 -0.440425,-0.045 -0.625,-0.031 z m 1.59375,5.1875 c 0.900821,-6e-4 1.790703,0.2709 2.59375,0.8125 2.14144,1.4445 2.72567,4.3274 1.28125,6.4688 -1.44442,2.1414 -4.35856,2.7257 -6.5,1.2812 -2.14142,-1.4444 -2.6944,-4.3586 -1.25,-6.5 0.90275,-1.3383 2.373632,-2.0613 3.875,-2.0625 z"
       style="fill:none;fill-opacity:1;stroke:#000000;display:inline;enable-background:new;stroke-opacity:1;stroke-width:2;stroke-miterlimit:4;stroke-dasharray:none;opacity:0.12" />
    <path
       style="fill:none;fill-opacity:1;stroke:#000000;display:inline;enable-background:new;stroke-opacity:1;stroke-width:4;stroke-miterlimit:4;stroke-dasharray:none;opacity:0.06"
       d="m 18.749223,1013.8888 c -0.14808,0 -0.33556,0.011 -0.5,0.062 0,0 -0.1475,0.2662 -0.3125,1.0937 -0.20188,1.0121 -0.61254,1.2727 -1.125,1.5625 l 0,0.031 c -0.1172,0.03 -0.22803,0.055 -0.34375,0.094 -0.58774,0.036 -1.0919,0.051 -1.8125,-0.6875 -0.58894,-0.604 -0.84375,-0.7812 -0.84375,-0.7812 -0.3317,0.092 -0.6875,0.375 -0.6875,0.375 0,0 -0.34082,0.2565 -0.5,0.5625 0,0 0.12523,0.2984 0.59375,1 0.57288,0.8584 0.46998,1.3391 0.3125,1.9062 -0.0616,0.1048 -0.1331,0.2043 -0.1875,0.3125 -0.38974,0.4414 -0.74931,0.7941 -1.78125,0.7813 -0.84354,-0.01 -1.125,0.094 -1.125,0.094 -0.1698,0.3005 -0.21875,0.7188 -0.21875,0.7188 0,0 -0.0423,0.4211 0.0625,0.75 0,0 0.26623,0.1477 1.09375,0.3125 1.01202,0.2019 1.2725,0.6127 1.5625,1.125 0.0306,0.1174 0.0866,0.2282 0.125,0.3437 0.0366,0.5877 0.02009,1.092 -0.71875,1.8125 -0.604,0.5891 -0.75,0.8438 -0.75,0.8438 0.0926,0.3324 0.34375,0.6875 0.34375,0.6875 0,0 0.28781,0.3096 0.59375,0.4687 0,0 0.2983,-0.094 1,-0.5625 0.85846,-0.5728 1.33897,-0.4696 1.90625,-0.3125 0.1054,0.062 0.20408,0.1335 0.3125,0.1875 0.44138,0.3898 0.79407,0.7494 0.78125,1.7813 -0.01,0.8436 0.0625,1.125 0.0625,1.125 0.30052,0.1696 0.75,0.2187 0.75,0.2187 0,0 0.42128,0.041 0.75,-0.062 0,0 0.11627,-0.2661 0.28125,-1.0937 0.20228,-1.012 0.64421,-1.2725 1.15625,-1.5625 0.1172,-0.03 0.22813,-0.087 0.34375,-0.125 0.5877,-0.036 1.09192,-0.021 1.8125,0.7187 0.58896,0.604 0.84375,0.75 0.84375,0.75 0.33254,-0.093 0.65625,-0.375 0.65625,-0.375 0,0 0.34092,-0.2565 0.5,-0.5625 0,0 -0.0937,-0.2983 -0.5625,-1 -0.5729,-0.8584 -0.46968,-1.3391 -0.3125,-1.9062 0.0616,-0.1052 0.1333,-0.2041 0.1875,-0.3125 0.38982,-0.4413 0.71806,-0.7942 1.75,-0.7813 0.84368,0.01 1.15625,-0.062 1.15625,-0.062 0.1696,-0.3006 0.21875,-0.75 0.21875,-0.75 0,0 0.0421,-0.4209 -0.0625,-0.75 0,0 -0.26623,-0.1477 -1.09375,-0.3125 -1.01216,-0.2019 -1.30385,-0.6126 -1.59375,-1.125 -0.0304,-0.1172 -0.05475,-0.2282 -0.09375,-0.3437 -0.0364,-0.5875 -0.05154,-1.0919 0.6875,-1.8125 0.60404,-0.589 0.78125,-0.8438 0.78125,-0.8438 -0.0924,-0.3324 -0.375,-0.6562 -0.375,-0.6562 0,0 -0.25652,-0.341 -0.5625,-0.5 0,0 -0.29804,0.094 -1,0.5625 -0.85842,0.5729 -1.33883,0.47 -1.90625,0.3125 -0.1046,-0.062 -0.23533,-0.1335 -0.34375,-0.1875 -0.44124,-0.3898 -0.76294,-0.7493 -0.75,-1.7813 0.01,-0.8436 -0.09375,-1.125 -0.09375,-1.125 -0.30036,-0.1698 -0.71875,-0.2187 -0.71875,-0.2187 0,0 -0.10192,-0 -0.25,0 z m -0.90625,4.2187 c 1.196616,-0.1038 2.40595,0.3713 3.21875,1.375 1.30048,1.606 1.07463,3.9496 -0.53125,5.25 -1.60594,1.3005 -3.98075,1.0747 -5.28125,-0.5312 -1.30048,-1.606 -1.04338,-3.9808 0.5625,-5.2813 0.60222,-0.4877 1.31328,-0.7502 2.03125,-0.8125 z m 8.5,7 c -0.184575,0.014 -0.3125,0.031 -0.3125,0.031 0,0 -0.55105,0.1307 -0.90625,0.375 0,0 -0.0433,0.3568 0.0625,1.4062 0.1286,1.2836 -0.27453,1.7789 -0.78125,2.3125 -0.1288,0.079 -0.25078,0.1615 -0.375,0.25 -0.68928,0.2581 -1.30614,0.4323 -2.4375,-0.1875 -0.92476,-0.5068 -1.28125,-0.5937 -1.28125,-0.5937 -0.36304,0.2307 -0.65625,0.6875 -0.65625,0.6875 0,0 -0.32783,0.451 -0.40625,0.875 0,0 0.2461,0.3012 1.0625,0.9687 0.99854,0.8167 1.04344,1.4519 1.0625,2.1875 -0.0354,0.1478 -0.06855,0.2883 -0.09375,0.4375 -0.30458,0.67 -0.57428,1.2007 -1.8125,1.5625 -1.01222,0.2955 -1.34375,0.5 -1.34375,0.5 -0.0932,0.4212 0,0.9688 0,0.9688 0,0 0.09963,0.5198 0.34375,0.875 0,0 0.38812,0.075 1.4375,-0.031 1.28354,-0.1284 1.74733,0.2749 2.28125,0.7813 0.0792,0.129 0.16188,0.2509 0.25,0.375 0.25864,0.6892 0.43218,1.275 -0.1875,2.4062 -0.50672,0.925 -0.59375,1.3125 -0.59375,1.3125 0.23204,0.3637 0.6875,0.6563 0.6875,0.6563 0,0 0.4512,0.2967 0.875,0.375 0,0 0.30131,-0.2146 0.96875,-1.0313 0.81684,-0.9985 1.45202,-1.0429 2.1875,-1.0625 l 0,-0.031 c 0.1484,0.035 0.28822,0.069 0.4375,0.094 l 0,0.031 c 0.67008,0.3047 1.23199,0.5743 1.59375,1.8125 0.2956,1.0123 0.5,1.3437 0.5,1.3437 0.4212,0.093 0.9375,0 0.9375,0 0,0 0.52004,-0.099 0.875,-0.3437 0,0 0.07255,-0.3878 -0.03125,-1.4375 -0.1282,-1.2836 0.27511,-1.7475 0.78125,-2.2813 l 0,-0.031 c 0.129,-0.079 0.25082,-0.1619 0.375,-0.25 0.68914,-0.2584 1.27485,-0.4322 2.40625,0.1875 0.92478,0.5068 1.3125,0.5937 1.3125,0.5937 0.36366,-0.2323 0.65625,-0.6875 0.65625,-0.6875 0,0 0.29664,-0.4198 0.375,-0.8437 0,0 -0.21435,-0.3325 -1.03125,-1 -0.99856,-0.8167 -1.04316,-1.4209 -1.0625,-2.1563 0.0354,-0.1484 0.06895,-0.3195 0.09375,-0.4687 0.30468,-0.6699 0.57426,-1.2007 1.8125,-1.5625 1.01238,-0.2956 1.34375,-0.5 1.34375,-0.5 0.0928,-0.4212 0,-0.9375 0,-0.9375 0,0 -0.09945,-0.551 -0.34375,-0.9063 0,0 -0.38804,-0.043 -1.4375,0.062 -1.28362,0.1286 -1.74743,-0.2746 -2.28125,-0.7812 -0.0792,-0.129 -0.16108,-0.2511 -0.25,-0.375 l 0,-0.031 c -0.258,-0.689 -0.46365,-1.2747 0.15625,-2.4062 0.50676,-0.9247 0.59375,-1.2813 0.59375,-1.2813 -0.23202,-0.3635 -0.65625,-0.6875 -0.65625,-0.6875 0,0 -0.4511,-0.2967 -0.875,-0.375 0,0 -0.33218,0.2458 -1,1.0625 -0.81674,0.9986 -1.42043,1.0434 -2.15625,1.0625 -0.1474,-0.036 -0.28812,-0.069 -0.4375,-0.094 -0.66992,-0.3048 -1.23209,-0.6054 -1.59375,-1.8438 -0.2958,-1.0122 -0.5,-1.3437 -0.5,-1.3437 -0.21056,-0.046 -0.440425,-0.045 -0.625,-0.031 z m 1.59375,5.1875 c 0.900821,-6e-4 1.790703,0.2709 2.59375,0.8125 2.14144,1.4445 2.72567,4.3274 1.28125,6.4688 -1.44442,2.1414 -4.35856,2.7257 -6.5,1.2812 -2.14142,-1.4444 -2.6944,-4.3586 -1.25,-6.5 0.90275,-1.3383 2.373632,-2.0613 3.875,-2.0625 z"
       id="path4134"
       inkscape:connector-curvature="0" />
    <path
       style="fill:#ffffff;fill-opacity:1;stroke:none;display:inline;enable-background:new"
       d="m 18.749223,1013.8888 c -0.14808,0 -0.33556,0.011 -0.5,0.062 0,0 -0.1475,0.2662 -0.3125,1.0937 -0.20188,1.0121 -0.61254,1.2727 -1.125,1.5625 l 0,0.031 c -0.1172,0.03 -0.22803,0.055 -0.34375,0.094 -0.58774,0.036 -1.0919,0.051 -1.8125,-0.6875 -0.58894,-0.604 -0.84375,-0.7812 -0.84375,-0.7812 -0.3317,0.092 -0.6875,0.375 -0.6875,0.375 0,0 -0.34082,0.2565 -0.5,0.5625 0,0 0.12523,0.2984 0.59375,1 0.57288,0.8584 0.46998,1.3391 0.3125,1.9062 -0.0616,0.1048 -0.1331,0.2043 -0.1875,0.3125 -0.38974,0.4414 -0.74931,0.7941 -1.78125,0.7813 -0.84354,-0.01 -1.125,0.094 -1.125,0.094 -0.1698,0.3005 -0.21875,0.7188 -0.21875,0.7188 0,0 -0.0423,0.4211 0.0625,0.75 0,0 0.26623,0.1477 1.09375,0.3125 1.01202,0.2019 1.2725,0.6127 1.5625,1.125 0.0306,0.1174 0.0866,0.2282 0.125,0.3437 0.0366,0.5877 0.02009,1.092 -0.71875,1.8125 -0.604,0.5891 -0.75,0.8438 -0.75,0.8438 0.0926,0.3324 0.34375,0.6875 0.34375,0.6875 0,0 0.28781,0.3096 0.59375,0.4687 0,0 0.2983,-0.094 1,-0.5625 0.85846,-0.5728 1.33897,-0.4696 1.90625,-0.3125 0.1054,0.062 0.20408,0.1335 0.3125,0.1875 0.44138,0.3898 0.79407,0.7494 0.78125,1.7813 -0.01,0.8436 0.0625,1.125 0.0625,1.125 0.30052,0.1696 0.75,0.2187 0.75,0.2187 0,0 0.42128,0.041 0.75,-0.062 0,0 0.11627,-0.2661 0.28125,-1.0937 0.20228,-1.012 0.64421,-1.2725 1.15625,-1.5625 0.1172,-0.03 0.22813,-0.087 0.34375,-0.125 0.5877,-0.036 1.09192,-0.021 1.8125,0.7187 0.58896,0.604 0.84375,0.75 0.84375,0.75 0.33254,-0.093 0.65625,-0.375 0.65625,-0.375 0,0 0.34092,-0.2565 0.5,-0.5625 0,0 -0.0937,-0.2983 -0.5625,-1 -0.5729,-0.8584 -0.46968,-1.3391 -0.3125,-1.9062 0.0616,-0.1052 0.1333,-0.2041 0.1875,-0.3125 0.38982,-0.4413 0.71806,-0.7942 1.75,-0.7813 0.84368,0.01 1.15625,-0.062 1.15625,-0.062 0.1696,-0.3006 0.21875,-0.75 0.21875,-0.75 0,0 0.0421,-0.4209 -0.0625,-0.75 0,0 -0.26623,-0.1477 -1.09375,-0.3125 -1.01216,-0.2019 -1.30385,-0.6126 -1.59375,-1.125 -0.0304,-0.1172 -0.05475,-0.2282 -0.09375,-0.3437 -0.0364,-0.5875 -0.05154,-1.0919 0.6875,-1.8125 0.60404,-0.589 0.78125,-0.8438 0.78125,-0.8438 -0.0924,-0.3324 -0.375,-0.6562 -0.375,-0.6562 0,0 -0.25652,-0.341 -0.5625,-0.5 0,0 -0.29804,0.094 -1,0.5625 -0.85842,0.5729 -1.33883,0.47 -1.90625,0.3125 -0.1046,-0.062 -0.23533,-0.1335 -0.34375,-0.1875 -0.44124,-0.3898 -0.76294,-0.7493 -0.75,-1.7813 0.01,-0.8436 -0.09375,-1.125 -0.09375,-1.125 -0.30036,-0.1698 -0.71875,-0.2187 -0.71875,-0.2187 0,0 -0.10192,-0 -0.25,0 z m -0.90625,4.2187 c 1.196616,-0.1038 2.40595,0.3713 3.21875,1.375 1.30048,1.606 1.07463,3.9496 -0.53125,5.25 -1.60594,1.3005 -3.98075,1.0747 -5.28125,-0.5312 -1.30048,-1.606 -1.04338,-3.9808 0.5625,-5.2813 0.60222,-0.4877 1.31328,-0.7502 2.03125,-0.8125 z m 8.5,7 c -0.184575,0.014 -0.3125,0.031 -0.3125,0.031 0,0 -0.55105,0.1307 -0.90625,0.375 0,0 -0.0433,0.3568 0.0625,1.4062 0.1286,1.2836 -0.27453,1.7789 -0.78125,2.3125 -0.1288,0.079 -0.25078,0.1615 -0.375,0.25 -0.68928,0.2581 -1.30614,0.4323 -2.4375,-0.1875 -0.92476,-0.5068 -1.28125,-0.5937 -1.28125,-0.5937 -0.36304,0.2307 -0.65625,0.6875 -0.65625,0.6875 0,0 -0.32783,0.451 -0.40625,0.875 0,0 0.2461,0.3012 1.0625,0.9687 0.99854,0.8167 1.04344,1.4519 1.0625,2.1875 -0.0354,0.1478 -0.06855,0.2883 -0.09375,0.4375 -0.30458,0.67 -0.57428,1.2007 -1.8125,1.5625 -1.01222,0.2955 -1.34375,0.5 -1.34375,0.5 -0.0932,0.4212 0,0.9688 0,0.9688 0,0 0.09963,0.5198 0.34375,0.875 0,0 0.38812,0.075 1.4375,-0.031 1.28354,-0.1284 1.74733,0.2749 2.28125,0.7813 0.0792,0.129 0.16188,0.2509 0.25,0.375 0.25864,0.6892 0.43218,1.275 -0.1875,2.4062 -0.50672,0.925 -0.59375,1.3125 -0.59375,1.3125 0.23204,0.3637 0.6875,0.6563 0.6875,0.6563 0,0 0.4512,0.2967 0.875,0.375 0,0 0.30131,-0.2146 0.96875,-1.0313 0.81684,-0.9985 1.45202,-1.0429 2.1875,-1.0625 l 0,-0.031 c 0.1484,0.035 0.28822,0.069 0.4375,0.094 l 0,0.031 c 0.67008,0.3047 1.23199,0.5743 1.59375,1.8125 0.2956,1.0123 0.5,1.3437 0.5,1.3437 0.4212,0.093 0.9375,0 0.9375,0 0,0 0.52004,-0.099 0.875,-0.3437 0,0 0.07255,-0.3878 -0.03125,-1.4375 -0.1282,-1.2836 0.27511,-1.7475 0.78125,-2.2813 l 0,-0.031 c 0.129,-0.079 0.25082,-0.1619 0.375,-0.25 0.68914,-0.2584 1.27485,-0.4322 2.40625,0.1875 0.92478,0.5068 1.3125,0.5937 1.3125,0.5937 0.36366,-0.2323 0.65625,-0.6875 0.65625,-0.6875 0,0 0.29664,-0.4198 0.375,-0.8437 0,0 -0.21435,-0.3325 -1.03125,-1 -0.99856,-0.8167 -1.04316,-1.4209 -1.0625,-2.1563 0.0354,-0.1484 0.06895,-0.3195 0.09375,-0.4687 0.30468,-0.6699 0.57426,-1.2007 1.8125,-1.5625 1.01238,-0.2956 1.34375,-0.5 1.34375,-0.5 0.0928,-0.4212 0,-0.9375 0,-0.9375 0,0 -0.09945,-0.551 -0.34375,-0.9063 0,0 -0.38804,-0.043 -1.4375,0.062 -1.28362,0.1286 -1.74743,-0.2746 -2.28125,-0.7812 -0.0792,-0.129 -0.16108,-0.2511 -0.25,-0.375 l 0,-0.031 c -0.258,-0.689 -0.46365,-1.2747 0.15625,-2.4062 0.50676,-0.9247 0.59375,-1.2813 0.59375,-1.2813 -0.23202,-0.3635 -0.65625,-0.6875 -0.65625,-0.6875 0,0 -0.4511,-0.2967 -0.875,-0.375 0,0 -0.33218,0.2458 -1,1.0625 -0.81674,0.9986 -1.42043,1.0434 -2.15625,1.0625 -0.1474,-0.036 -0.28812,-0.069 -0.4375,-0.094 -0.66992,-0.3048 -1.23209,-0.6054 -1.59375,-1.8438 -0.2958,-1.0122 -0.5,-1.3437 -0.5,-1.3437 -0.21056,-0.046 -0.440425,-0.045 -0.625,-0.031 z m 1.59375,5.1875 c 0.900821,-6e-4 1.790703,0.2709 2.59375,0.8125 2.14144,1.4445 2.72567,4.3274 1.28125,6.4688 -1.44442,2.1414 -4.35856,2.7257 -6.5,1.2812 -2.14142,-1.4444 -2.6944,-4.3586 -1.25,-6.5 0.90275,-1.3383 2.373632,-2.0613 3.875,-2.0625 z"
       id="path3086"
       inkscape:connector-curvature="0" />
  </g>
</svg>
