/* XPM */
static char *desktop[] = {
/* columns rows colors chars-per-pixel */
"48 48 56 1 ",
"  c #151823",
". c #222845",
"X c #232B49",
"o c #252F53",
"O c #263054",
"+ c #293256",
"@ c #2C3659",
"# c #2F395B",
"$ c #313B5E",
"% c #353F61",
"& c #364163",
"* c #475693",
"= c #5265A7",
"- c #5467A9",
"; c #5569AA",
": c #596DAD",
"> c #5B6FB3",
", c #5D71B1",
"< c #5E73BE",
"1 c #6878AC",
"2 c #6174B4",
"3 c #6276BD",
"4 c #6478BF",
"5 c #596FC3",
"6 c #5C72C6",
"7 c #5F75C8",
"8 c #6176C3",
"9 c #667BC4",
"0 c #687CC7",
"q c #6077CA",
"w c #647ACC",
"e c #697DC9",
"r c #677ED0",
"t c #687FD1",
"y c #6A80C6",
"u c #6C82CC",
"i c #6C83D4",
"p c #6F87D8",
"a c #7086D3",
"s c #7289D6",
"d c #7087D8",
"f c #748CDB",
"g c #788FDB",
"h c #7C93DD",
"j c #778FE0",
"k c #7A92E2",
"l c #899CDE",
"z c #8197E1",
"x c #95A7E1",
"c c #9CAEEA",
"v c #9FB1EC",
"b c #CFD4E7",
"n c #D1D6E8",
"m c #D3D8EA",
"M c gray100",
"N c None",
/* pixels */
"NNNNNNNNNNNNNNNNNNNNNNNNNNNNNNNNNNNNNNNNNNNNNNNN",
"NNNNNNNNNNNNNNNNNNNNNNNNNNNNNNNNNNNNNNNNNNNNNNNN",
"NNNNNNNNNNNNNNNNNNNNNNNNNNNNNNNNNNNNNNNNNNNNNNNN",
"NNNNNNNNNNNNNNNNNNNNNNNNNNNNNNNNNNNNNNNNNNNNNNNN",
"NNNNNNNNNNNNNNNNNNNNNNNNNNNNNNNNNNNNNNNNNNNNNNNN",
"NNNNNN$%%%%&&&&&&&&&&&&&&&&&&&&&&&&%&&&&%$NNNNNN",
"NNNNN1xccccvccvvvvvvvvvvvvvvvvvvvvvcccvccx1NNNNN",
"NNNN$lhkkkkkkkkkkkkzkzkzzzzkzkkkkkkkkkkjkkl#NNNN",
"NNNN%zgjjgffgggggjkkkkkkkzkkkzkkkkkkkjjkjgz%NNNN",
"NNNN%kgjsauauaauasjkkkkkkkkkkkkkkkjkkjjfjhk$NNNN",
"NNNN$hffuy22,22,2ypjkkkkkkkkkkkkkkjjjjjjjgz$NNNN",
"NNNN&hfsu2nMMMMMm2ijkkjjkkkkkkkkjjjjgjgjjfh$NNNN",
"NNNN$hfau,MMMMMMM,ufjjjjjjjjkjjjjfjjjfffffh$NNNN",
"NNNN$hfpy,MMMMMMM,usjjjjjjjjjjjjjjfffjffffh#NNNN",
"NNNN#hday>MMMMMMM,ysjffjfjjjjjjjffffffffffg#NNNN",
"NNNN$gday:MMMMMMM,ysjpjjffpjpfjpfffffffdpph$NNNN",
"NNNN#hpi0:MMMMMMM,yafffffpfffffffdfdfpddddh#NNNN",
"NNNN#gii9:nMMMMMn>yiffpfffffspfpffpffpppdpg#NNNN",
"NNNN#giau3::::::>3uifpfpsppppppfddddpppppig#NNNN",
"NNNN@gii03:;::::,3uapppppppfpppsdpddppipiig#NNNN",
"NNNN#gii9:nMMMMMn:9ipppppppipppidpiiiddiiif#NNNN",
"NNNN#di08;MMMMMMM;8uipipipppssipdipiiiitiis#NNNN",
"NNNN#siu9-MMMMMMM;9uipippippipiidipiiiiiiia#NNNN",
"NNNN@pu06-MMMMMMM;8uiiiiiiiiiiiiiititiiiiis@NNNN",
"NNNN@ai06=MMMMMMM;8uiiiiiiiiiiiiitiitittita@NNNN",
"NNNN@atw3=MMMMMMM;8wiitiiiririirittttttttta@NNNN",
"NNNN@atq<;bMMMMMb=6wttttiririrrrtttrtttrtea@NNNN",
"NNNN@ir06>======;>7rttrrriwirirrttrrtttrtwa@NNNN",
"NNNN@uww86<<<<<<58qurrrrrrrrwrrrrrwrrrewwti@NNNN",
"NNNN+iwrwwwq8qwwwwwwwrrrwrrrrwrrrrrwwwwwwwt@NNNN",
"NNNN+uwwwwwwwwrwrwwiwrwrrwrwrwwrrwwwwwwwwwt@NNNN",
"NNNN@tqwwwwwwwwwwwwqrwwwwwwwwwwwwwwwwwwwwwt+NNNN",
"NNNN@eqqqqqwwwwwwwwwwwwwwwwqwwwwqwwqwqqwqqr+NNNN",
"NNNN@eq7wqqqqqwqqwqww7qwqwqwqwqwwqwqwqqqqqr+NNNN",
"NNNN+eqqqqqqqqqqw77wqwqwwqqqwqqqqqqqqq7777r+NNNN",
"NNNNow6qq7777qqqqq77qq7wqqqqq7q77q7q777777w+NNNN",
"NNNN+w6q6q77qq7777777777qq77777777777777q6wONNNN",
"NNNNow66666667q667777777777777677777666666wONNNN",
"NNNNO0666666676667777667776767677766666666q@NNNN",
"NNNNO8656666666666666666666666666666666665q+NNNN",
"NNNNO85565665666666666656666666666655565568oNNNN",
"NNNNO85555555555565565655556555656565555557oNNNN",
"NNNNX8555555555555555555555555555555555555<XNNNN",
"NNNN *80ee8eeeee0eee00ee0e0e0e0ee00e000003* NNNN",
"NNNNN .XXXXX.XXXXXXXXXXXXXXXXXXX.XXXXXXXXX NNNNN",
"NNNNNNNNNNNNNNNNNNNNNNNNNNNNNNNNNNNNNNNNNNNNNNNN",
"NNNNNNNNNNNNNNNNNNNNNNNNNNNNNNNNNNNNNNNNNNNNNNNN",
"NNNNNNNNNNNNNNNNNNNNNNNNNNNNNNNNNNNNNNNNNNNNNNNN"
};
