/* XPM */
static char *icons[] = {
/* columns rows colors chars-per-pixel */
"48 48 59 1 ",
"  c #374B28",
". c #384F2A",
"X c #486732",
"o c #4A6A33",
"O c #517337",
"+ c #54763A",
"@ c #56783C",
"# c #59793D",
"$ c #5B7C40",
"% c #709C4B",
"& c #75A24D",
"* c #78A44F",
"= c #7AA551",
"- c #7EAA54",
"; c #81AA56",
": c #84AD5A",
"> c #83B655",
", c #86BA57",
"< c #87B15B",
"1 c #8AB45D",
"2 c #87B858",
"3 c #8ABD5B",
"4 c #8BB462",
"5 c #92BE63",
"6 c #95B776",
"7 c #95B876",
"8 c #9DBD7D",
"9 c #8CC35A",
"0 c #90C75E",
"q c #91C85F",
"w c #8FC362",
"e c #93C463",
"r c #98C667",
"t c #95CA62",
"y c #99CD65",
"u c #95C768",
"i c #99C768",
"p c #96C869",
"a c #9DCD6B",
"s c #9BD067",
"d c #9ED16A",
"f c #A0CE6E",
"g c #A2D46D",
"h c #A5D86F",
"j c #A4D471",
"k c #A6D871",
"l c #AADC75",
"z c #ACDC7A",
"x c #B1DF7E",
"c c #AEE179",
"v c #B1E47C",
"b c #A6C384",
"n c #B3DE88",
"m c #B3E181",
"M c #BDE195",
"N c #C5EB9E",
"B c #E4EDDB",
"V c gray100",
"C c None",
/* pixels */
"CCCCCCCCCCCCCCCCCCCCCCCCCCCCCCCCCCCCCCCCCCCCCCCC",
"CCCCCCCCCCCCCCCCCCCCCCCCCCCCCCCCCCCCCCCCCCCCCCCC",
"CCCCCCCCCCCCCCCCCCCCCCCCCCCCCCCCCCCCCCCCCCCCCCCC",
"CCCCCCCCCCCCCCCCCCCCCCCCCCCCCCCCCCCCCCCCCCCCCCCC",
"CCCCCCCCCCCCCCCCCCCCCCCCCCCCCCCCCCCCCCCCCCCCCCCC",
"CCCCCC#$##$$$$$$$$$$$$#%$$$%$$$$$#$$$$##$#CCCCCC",
"CCCCC4MNNNNNNNNNNNNNNNNNNNNNNNNNNNNNNNNNNM4CCCCC",
"CCCC$nczcvcvvvvvvvvmvvmvvvvvmvvvvvvcvvccccn$CCCC",
"CCCC#mzlvccvvvvvvvvvvvvvvvvvvvvvvvvvlvccclm#CCCC",
"CCCC#vlvlccczzvlcvcxvvvvvvvcvvvczzvcvlccclm#CCCC",
"CCCC#xlclcllzlllllzlllzzvzlzllllllkzlzclllm@CCCC",
"CCCC#vlllckkffaafaafffjlljafffaaaffjkklcllx$CCCC",
"CCCC#xlllljf5111414<445ff544414:1145ahllllz#CCCC",
"CCCC#zkllkf5bBVVVVVVVBb55bBVVVVVVVBb5fklllz#CCCC",
"CCCC#zkklhi1BVVVVVVVVVB44BVVVVVVVVVB:ahkklz#CCCC",
"CCCC#zkkkgi<VVVVVVVVVVV11VVVVVVVVVVV:ihkkkz#CCCC",
"CCCC@zkhkgi:VVVVVVVVVVV1:VVVVVVVVVVV:igkhhz#CCCC",
"CCCC@lhhhgr:VVVVVVVVVVV::VVVVVVVVVVV:rfkhhz+CCCC",
"CCCC@lhkhfr:VVVVVVVVVVV::VVVVVVVVVVV:ighjgl@CCCC",
"CCCC$jgggfe:VVVVVVVVVVV::VVVVVVVVVVV:esjggl@CCCC",
"CCCC@lgggse:VVVVVVVVVVV::VVVVVVVVVVV:esgggj#CCCC",
"CCCC@jaggs5;VVVVVVVVVVV::VVVVVVVVVVV:5agggj+CCCC",
"CCCC@ksggsr:BVVVVVVVVVB::BVVVVVVVVVB:5sgsgk@CCCC",
"CCCC+jgsgse18BVVVVVVVB8118BVVVVVVVB81essgsj@CCCC",
"CCCC@jsdgsi52;;-;;;;-:10e1:;;;;;=-:1wesgddj#CCCC",
"CCCC@jdssst51;-==;---:<501;---;=--;19issydg+CCCC",
"CCCC+jsssiw<8BVVVVVVVB8<<8BVVVVVVVB7<wssydj+CCCC",
"CCCC+dysst0-BVVVVVVVVVB;;BVVVVVVVVVB-5tsyyd@CCCC",
"CCCC+fyyyt3=VVVVVVVVVVV==VVVVVVVVVVV-3tyyyd+CCCC",
"CCCC+ayyyw3=VVVVVVVVVVV==VVVVVVVVVVV=3tyyyd+CCCC",
"CCCC+dttyt3*VVVVVVVVVVV==VVVVVVVVVVV=2qyttd+CCCC",
"CCCC+dttt01*VVVVVVVVVVV**VVVVVVVVVVV*3qtttd+CCCC",
"CCCC+yttt93&VVVVVVVVVVV&&VVVVVVVVVVV*,qtttsOCCCC",
"CCCC+ytqtw,&VVVVVVVVVVV&&VVVVVVVVVVV&,0qtqs+CCCC",
"CCCCOyqtt9,&VVVVVVVVVVV&&VVVVVVVVVVV&,qqqqyOCCCC",
"CCCCOy0009,*BVVVVVVVVVB&&BVVVVVVVVVB&,9qqqyOCCCC",
"CCCC+y0009,-6BVVVVVVVB7--7BVVVVVVVB7-,9q00iOCCCC",
"CCCCOt00099>=&%&&&%&&&->>-&%&&&&&%&*>99q09tOCCCC",
"CCCCOt9w0993,>>>--,--,399,>>>>>>>>>>,99q90tOCCCC",
"CCCCOw9909999,99999999999999,99,9,99999999tOCCCC",
"CCCCOw999999999999909099909900999999999999qOCCCC",
"CCCCO9999999999999999999999999999999999999wOCCCC",
"CCCCo99999999999999999999999999999999999993oCCCC",
"CCCC.%wuttwuuputpppptptpptppptppppuuuwuutw%.CCCC",
"CCCCC.XooooooooooooooooooooooooooooooooooX.CCCCC",
"CCCCCCCCCCCCCCCCCCCCCCCCCCCCCCCCCCCCCCCCCCCCCCCC",
"CCCCCCCCCCCCCCCCCCCCCCCCCCCCCCCCCCCCCCCCCCCCCCCC",
"CCCCCCCCCCCCCCCCCCCCCCCCCCCCCCCCCCCCCCCCCCCCCCCC"
};
