<?xml version="1.0" encoding="UTF-8" standalone="no"?>
<!-- Created with Inkscape (http://www.inkscape.org/) -->

<svg
   xmlns:dc="http://purl.org/dc/elements/1.1/"
   xmlns:cc="http://creativecommons.org/ns#"
   xmlns:rdf="http://www.w3.org/1999/02/22-rdf-syntax-ns#"
   xmlns:svg="http://www.w3.org/2000/svg"
   xmlns="http://www.w3.org/2000/svg"
   xmlns:xlink="http://www.w3.org/1999/xlink"
   xmlns:sodipodi="http://sodipodi.sourceforge.net/DTD/sodipodi-0.dtd"
   xmlns:inkscape="http://www.inkscape.org/namespaces/inkscape"
   width="48"
   height="48"
   id="svg2"
   version="1.1"
   inkscape:version="0.48.4 r9939"
   sodipodi:docname="jsm-icons.svg"
   inkscape:export-filename="/home/lovejesus/computerstuff/programming/jwm/JWM/jwmConfig/data/img/jsm-icons.png"
   inkscape:export-xdpi="116.96"
   inkscape:export-ydpi="116.96">
  <defs
     id="defs4">
    <linearGradient
       id="linearGradient7622">
      <stop
         style="stop-color:#000000;stop-opacity:1;"
         offset="0"
         id="stop7624" />
      <stop
         id="stop7630"
         offset="0.5"
         style="stop-color:#000000;stop-opacity:0.251" />
      <stop
         style="stop-color:#000000;stop-opacity:1;"
         offset="1"
         id="stop7626" />
    </linearGradient>
    <linearGradient
       id="linearGradient7251">
      <stop
         style="stop-color:#fc93dc;stop-opacity:1;"
         offset="0"
         id="stop7253" />
      <stop
         style="stop-color:#da72d3;stop-opacity:1"
         offset="1"
         id="stop7255" />
    </linearGradient>
    <radialGradient
       cx="4.9929786"
       cy="43.5"
       r="2.5"
       fx="4.9929786"
       fy="43.5"
       id="radialGradient3337-2-2"
       xlink:href="#linearGradient3688-166-749-4-0-3-8"
       gradientUnits="userSpaceOnUse"
       gradientTransform="matrix(2.003784,0,0,1.4,27.98813,-17.4)" />
    <linearGradient
       id="linearGradient3688-166-749-4-0-3-8">
      <stop
         id="stop2883-4-0-1-8"
         style="stop-color:#181818;stop-opacity:1"
         offset="0" />
      <stop
         id="stop2885-9-2-9-6"
         style="stop-color:#181818;stop-opacity:0"
         offset="1" />
    </linearGradient>
    <radialGradient
       cx="4.9929786"
       cy="43.5"
       r="2.5"
       fx="4.9929786"
       fy="43.5"
       id="radialGradient3339-1-4"
       xlink:href="#linearGradient3688-464-309-9-2-4-2"
       gradientUnits="userSpaceOnUse"
       gradientTransform="matrix(2.003784,0,0,1.4,-20.01187,-104.4)" />
    <linearGradient
       id="linearGradient3688-464-309-9-2-4-2">
      <stop
         id="stop2889-7-9-6-9"
         style="stop-color:#181818;stop-opacity:1"
         offset="0" />
      <stop
         id="stop2891-6-6-1-7"
         style="stop-color:#181818;stop-opacity:0"
         offset="1" />
    </linearGradient>
    <linearGradient
       y2="39.999443"
       x2="25.058096"
       y1="47.027729"
       x1="25.058096"
       gradientUnits="userSpaceOnUse"
       id="linearGradient21034"
       xlink:href="#linearGradient3702-501-757-8-4-1-1"
       inkscape:collect="always" />
    <linearGradient
       id="linearGradient3702-501-757-8-4-1-1">
      <stop
         id="stop2895-8-9-9-1"
         style="stop-color:#181818;stop-opacity:0"
         offset="0" />
      <stop
         id="stop2897-7-8-7-7"
         style="stop-color:#181818;stop-opacity:1"
         offset="0.5" />
      <stop
         id="stop2899-4-5-1-5"
         style="stop-color:#181818;stop-opacity:0"
         offset="1" />
    </linearGradient>
    <radialGradient
       inkscape:collect="always"
       xlink:href="#linearGradient3671-580-6"
       id="radialGradient20986"
       gradientUnits="userSpaceOnUse"
       gradientTransform="matrix(0,9.1402449,-11.221301,0,136.56277,926.47473)"
       cx="7.1448598"
       cy="10.031169"
       fx="7.1448598"
       fy="10.031169"
       r="12.671875" />
    <linearGradient
       id="linearGradient3671-580-6">
      <stop
         id="stop4088-6"
         style="stop-color:#c7fc93;stop-opacity:1;"
         offset="0" />
      <stop
         id="stop4090-4"
         style="stop-color:#a8da72;stop-opacity:1;"
         offset="0.26238" />
      <stop
         id="stop4092-6"
         style="stop-color:#6cab3f;stop-opacity:1;"
         offset="0.704952" />
      <stop
         id="stop4094-2"
         style="stop-color:#3d582b;stop-opacity:1;"
         offset="1" />
    </linearGradient>
    <linearGradient
       inkscape:collect="always"
       xlink:href="#linearGradient3924-2-2-5-8"
       id="linearGradient20983"
       gradientUnits="userSpaceOnUse"
       gradientTransform="translate(-2.094513e-6,1005.3622)"
       x1="23.99999"
       y1="4.999989"
       x2="23.99999"
       y2="43" />
    <linearGradient
       id="linearGradient3924-2-2-5-8">
      <stop
         id="stop3926-9-4-9-6"
         style="stop-color:#ffffff;stop-opacity:1"
         offset="0" />
      <stop
         id="stop3928-9-8-6-5"
         style="stop-color:#ffffff;stop-opacity:0.23529412"
         offset="0.06316455" />
      <stop
         id="stop3930-3-5-1-7"
         style="stop-color:#ffffff;stop-opacity:0.15686275"
         offset="0.95056331" />
      <stop
         id="stop3932-8-0-4-8"
         style="stop-color:#ffffff;stop-opacity:0.39215687"
         offset="1" />
    </linearGradient>
    <linearGradient
       id="linearGradient3707-662-8">
      <stop
         id="stop4098-9"
         style="stop-color:#542f57;stop-opacity:1"
         offset="0" />
      <stop
         id="stop4100-6"
         style="stop-color:#bb5ca4;stop-opacity:1"
         offset="1" />
    </linearGradient>
    <linearGradient
       gradientTransform="translate(-2e-7,945.36217)"
       inkscape:collect="always"
       xlink:href="#linearGradient25914"
       id="linearGradient26143"
       x1="32"
       y1="56"
       x2="32"
       y2="8"
       gradientUnits="userSpaceOnUse" />
    <linearGradient
       id="linearGradient25914">
      <stop
         style="stop-color:#000000;stop-opacity:1;"
         offset="0"
         id="stop25916" />
      <stop
         id="stop25922"
         offset="0.5"
         style="stop-color:#000000;stop-opacity:0.25098041;" />
      <stop
         style="stop-color:#000000;stop-opacity:1;"
         offset="1"
         id="stop25918" />
    </linearGradient>
    <linearGradient
       inkscape:collect="always"
       xlink:href="#linearGradient3671-580-6"
       id="linearGradient24496"
       x1="19.76383"
       y1="30.5"
       x2="52.036171"
       y2="30.5"
       gradientUnits="userSpaceOnUse" />
    <linearGradient
       id="linearGradient7833">
      <stop
         id="stop7835"
         style="stop-color:#fc93dc;stop-opacity:1"
         offset="0" />
      <stop
         id="stop7837"
         style="stop-color:#da72d3;stop-opacity:1"
         offset="0.26238" />
      <stop
         id="stop7839"
         style="stop-color:#a33fab;stop-opacity:1"
         offset="0.704952" />
      <stop
         id="stop7841"
         style="stop-color:#502b58;stop-opacity:1"
         offset="1" />
    </linearGradient>
    <linearGradient
       inkscape:collect="always"
       xlink:href="#linearGradient3671-580-6"
       id="linearGradient24500"
       gradientUnits="userSpaceOnUse"
       x1="35.900002"
       y1="14.190327"
       x2="35.900002"
       y2="46.809681" />
    <linearGradient
       id="linearGradient7844">
      <stop
         id="stop7846"
         style="stop-color:#fc93dc;stop-opacity:1"
         offset="0" />
      <stop
         id="stop7848"
         style="stop-color:#da72d3;stop-opacity:1"
         offset="0.26238" />
      <stop
         id="stop7850"
         style="stop-color:#a33fab;stop-opacity:1"
         offset="0.704952" />
      <stop
         id="stop7852"
         style="stop-color:#502b58;stop-opacity:1"
         offset="1" />
    </linearGradient>
    <linearGradient
       inkscape:collect="always"
       xlink:href="#linearGradient3671-580-6"
       id="linearGradient26148"
       gradientUnits="userSpaceOnUse"
       x1="32"
       y1="24"
       x2="32"
       y2="48"
       gradientTransform="translate(0,988.36218)" />
    <linearGradient
       id="linearGradient7855">
      <stop
         id="stop7857"
         style="stop-color:#fc93dc;stop-opacity:1"
         offset="0" />
      <stop
         id="stop7859"
         style="stop-color:#da72d3;stop-opacity:1"
         offset="0.26238" />
      <stop
         id="stop7861"
         style="stop-color:#a33fab;stop-opacity:1"
         offset="0.704952" />
      <stop
         id="stop7863"
         style="stop-color:#502b58;stop-opacity:1"
         offset="1" />
    </linearGradient>
    <linearGradient
       inkscape:collect="always"
       xlink:href="#linearGradient3702-501-757-8-4-1-1"
       id="linearGradient6326"
       gradientUnits="userSpaceOnUse"
       x1="25.058096"
       y1="47.027729"
       x2="25.058096"
       y2="39.999443"
       gradientTransform="matrix(1.2857143,0,0,0.57142854,-6.8571431,1023.5052)" />
    <radialGradient
       inkscape:collect="always"
       xlink:href="#linearGradient3688-464-309-9-2-4-2"
       id="radialGradient6329"
       gradientUnits="userSpaceOnUse"
       gradientTransform="matrix(1.6030272,0,0,0.8,-14.009496,-1083.1623)"
       cx="4.9929786"
       cy="43.5"
       fx="4.9929786"
       fy="43.5"
       r="2.5" />
    <radialGradient
       inkscape:collect="always"
       xlink:href="#linearGradient3688-166-749-4-0-3-8"
       id="radialGradient6332"
       gradientUnits="userSpaceOnUse"
       gradientTransform="matrix(1.6030272,0,0,0.8,33.990503,1013.5623)"
       cx="4.9929786"
       cy="43.5"
       fx="4.9929786"
       fy="43.5"
       r="2.5" />
    <linearGradient
       inkscape:collect="always"
       xlink:href="#linearGradient7251"
       id="linearGradient3109"
       gradientUnits="userSpaceOnUse"
       x1="24"
       y1="19"
       x2="24"
       y2="37"
       gradientTransform="translate(0,1004.3622)" />
  </defs>
  <sodipodi:namedview
     id="base"
     pagecolor="#ffffff"
     bordercolor="#666666"
     borderopacity="1.0"
     inkscape:pageopacity="0.0"
     inkscape:pageshadow="2"
     inkscape:zoom="1"
     inkscape:cx="41.473758"
     inkscape:cy="25.781343"
     inkscape:document-units="px"
     inkscape:current-layer="layer1"
     showgrid="false"
     inkscape:showpageshadow="false"
     inkscape:window-width="1615"
     inkscape:window-height="1026"
     inkscape:window-x="65"
     inkscape:window-y="24"
     inkscape:window-maximized="1"
     inkscape:snap-bbox="true"
     inkscape:bbox-paths="true"
     inkscape:bbox-nodes="true"
     inkscape:snap-bbox-edge-midpoints="true"
     inkscape:snap-bbox-midpoints="true">
    <inkscape:grid
       type="xygrid"
       id="grid6334"
       empspacing="12"
       visible="true"
       enabled="true"
       snapvisiblegridlinesonly="true" />
  </sodipodi:namedview>
  <metadata
     id="metadata7">
    <rdf:RDF>
      <cc:Work
         rdf:about="">
        <dc:format>image/svg+xml</dc:format>
        <dc:type
           rdf:resource="http://purl.org/dc/dcmitype/StillImage" />
        <dc:title></dc:title>
      </cc:Work>
    </rdf:RDF>
  </metadata>
  <g
     inkscape:label="Layer 1"
     inkscape:groupmode="layer"
     id="layer1"
     transform="translate(0,-1004.3622)">
    <g
       id="g6336"
       style="opacity:0.6">
      <rect
         style="opacity:1;fill:url(#radialGradient6332);fill-opacity:1;stroke:none"
         id="rect2801-5-5-7-9"
         y="1046.3623"
         x="42"
         height="4"
         width="4" />
      <rect
         style="opacity:1;fill:url(#radialGradient6329);fill-opacity:1;stroke:none"
         id="rect3696-3-0-3-7"
         transform="scale(-1,-1)"
         y="-1050.3623"
         x="-6"
         height="4"
         width="4" />
      <rect
         style="opacity:1;fill:url(#linearGradient6326);fill-opacity:1;stroke:none"
         id="rect3700-5-6-8-4"
         y="1046.3623"
         x="6"
         height="4"
         width="36" />
    </g>
    <rect
       style="color:#000000;fill:url(#radialGradient20986);fill-opacity:1.0;fill-rule:nonzero;stroke:none;stroke-width:0.99999994000000003;marker:none;visibility:visible;display:inline;overflow:visible;enable-background:accumulate"
       id="rect5505-21-3-8-5-2"
       y="1009.8622"
       x="4.5"
       ry="2"
       rx="2"
       height="39"
       width="39" />
    <rect
       style="opacity:0.3;fill:none;stroke:url(#linearGradient20983);stroke-width:1;stroke-linecap:round;stroke-linejoin:round;stroke-miterlimit:4;stroke-opacity:1;stroke-dasharray:none;stroke-dashoffset:0"
       id="rect6741-5-0-2-3"
       y="1010.8622"
       x="5.499999"
       ry="1"
       rx="1"
       height="37"
       width="37" />
    <rect
       style="opacity:0.59999999999999998;color:#000000;fill:none;stroke:#3d582b;stroke-width:1;stroke-linecap:round;stroke-linejoin:round;stroke-miterlimit:4;stroke-opacity:1;stroke-dasharray:none;stroke-dashoffset:0;marker:none;visibility:visible;display:inline;overflow:visible;enable-background:accumulate"
       id="rect5505-21-3-8-9-1-1"
       y="4.499999"
       x="-1048.8622"
       ry="2"
       rx="2"
       height="39"
       width="39"
       transform="matrix(0,-1,1,0,0,0)" />
    <path
       id="path3934"
       transform="translate(0,1004.3622)"
       d="M 14 13 C 12.892 13 12 13.892 12 15 L 12 22 C 12 23.108 12.892 24 14 24 L 21 24 C 22.108 24 23 23.108 23 22 L 23 15 C 23 13.892 22.108 13 21 13 L 14 13 z M 27 13 C 25.892 13 25 13.892 25 15 L 25 22 C 25 23.108 25.892 24 27 24 L 34 24 C 35.108 24 36 23.108 36 22 L 36 15 C 36 13.892 35.108 13 34 13 L 27 13 z M 14 26 C 12.892 26 12 26.89199 12 28 L 12 35 C 12 36.10801 12.892 37 14 37 L 21 37 C 22.108 37 23 36.10801 23 35 L 23 28 C 23 26.89199 22.108 26 21 26 L 14 26 z M 27 26 C 25.892 26 25 26.892 25 28 L 25 35 C 25 36.108 25.892 37 27 37 L 34 37 C 35.108 37 36 36.108 36 35 L 36 28 C 36 26.892 35.108 26 34 26 L 27 26 z "
       style="color:#000000;fill:none;fill-opacity:1;stroke:#000000;stroke-width:6;marker:none;visibility:visible;display:inline;overflow:visible;enable-background:accumulate;stroke-opacity:1;stroke-miterlimit:4;stroke-dasharray:none;opacity:0.03" />
    <path
       style="color:#000000;fill:none;fill-opacity:1;stroke:#000000;stroke-width:4;marker:none;visibility:visible;display:inline;overflow:visible;enable-background:accumulate;stroke-opacity:1;stroke-miterlimit:4;stroke-dasharray:none;opacity:0.06"
       d="M 14 13 C 12.892 13 12 13.892 12 15 L 12 22 C 12 23.108 12.892 24 14 24 L 21 24 C 22.108 24 23 23.108 23 22 L 23 15 C 23 13.892 22.108 13 21 13 L 14 13 z M 27 13 C 25.892 13 25 13.892 25 15 L 25 22 C 25 23.108 25.892 24 27 24 L 34 24 C 35.108 24 36 23.108 36 22 L 36 15 C 36 13.892 35.108 13 34 13 L 27 13 z M 14 26 C 12.892 26 12 26.89199 12 28 L 12 35 C 12 36.10801 12.892 37 14 37 L 21 37 C 22.108 37 23 36.10801 23 35 L 23 28 C 23 26.89199 22.108 26 21 26 L 14 26 z M 27 26 C 25.892 26 25 26.892 25 28 L 25 35 C 25 36.108 25.892 37 27 37 L 34 37 C 35.108 37 36 36.108 36 35 L 36 28 C 36 26.892 35.108 26 34 26 L 27 26 z "
       transform="translate(0,1004.3622)"
       id="path3936" />
    <path
       id="path3938"
       transform="translate(0,1004.3622)"
       d="M 14 13 C 12.892 13 12 13.892 12 15 L 12 22 C 12 23.108 12.892 24 14 24 L 21 24 C 22.108 24 23 23.108 23 22 L 23 15 C 23 13.892 22.108 13 21 13 L 14 13 z M 27 13 C 25.892 13 25 13.892 25 15 L 25 22 C 25 23.108 25.892 24 27 24 L 34 24 C 35.108 24 36 23.108 36 22 L 36 15 C 36 13.892 35.108 13 34 13 L 27 13 z M 14 26 C 12.892 26 12 26.89199 12 28 L 12 35 C 12 36.10801 12.892 37 14 37 L 21 37 C 22.108 37 23 36.10801 23 35 L 23 28 C 23 26.89199 22.108 26 21 26 L 14 26 z M 27 26 C 25.892 26 25 26.892 25 28 L 25 35 C 25 36.108 25.892 37 27 37 L 34 37 C 35.108 37 36 36.108 36 35 L 36 28 C 36 26.892 35.108 26 34 26 L 27 26 z "
       style="color:#000000;fill:none;fill-opacity:1;stroke:#000000;stroke-width:2;marker:none;visibility:visible;display:inline;overflow:visible;enable-background:accumulate;stroke-opacity:1;stroke-miterlimit:4;stroke-dasharray:none;opacity:0.12" />
    <path
       style="color:#000000;fill:#ffffff;fill-opacity:1;stroke:none;stroke-width:2;marker:none;visibility:visible;display:inline;overflow:visible;enable-background:accumulate"
       d="M 14 13 C 12.892 13 12 13.892 12 15 L 12 22 C 12 23.108 12.892 24 14 24 L 21 24 C 22.108 24 23 23.108 23 22 L 23 15 C 23 13.892 22.108 13 21 13 L 14 13 z M 27 13 C 25.892 13 25 13.892 25 15 L 25 22 C 25 23.108 25.892 24 27 24 L 34 24 C 35.108 24 36 23.108 36 22 L 36 15 C 36 13.892 35.108 13 34 13 L 27 13 z M 14 26 C 12.892 26 12 26.89199 12 28 L 12 35 C 12 36.10801 12.892 37 14 37 L 21 37 C 22.108 37 23 36.10801 23 35 L 23 28 C 23 26.89199 22.108 26 21 26 L 14 26 z M 27 26 C 25.892 26 25 26.892 25 28 L 25 35 C 25 36.108 25.892 37 27 37 L 34 37 C 35.108 37 36 36.108 36 35 L 36 28 C 36 26.892 35.108 26 34 26 L 27 26 z "
       transform="translate(0,1004.3622)"
       id="rect3923" />
  </g>
</svg>
