/* XPM */
static char *autostart[] = {
/* columns rows colors chars-per-pixel */
"48 48 108 2 ",
"   c #4B3F28",
".  c #4F432A",
"X  c #675532",
"o  c #6A5633",
"O  c #6A5833",
"+  c #735F37",
"@  c #745F38",
"#  c #76623A",
"$  c #79653D",
"%  c #7C6840",
"&  c #9C804B",
"*  c #A4854D",
"=  c #A7884F",
"-  c #AA894E",
";  c #A38651",
":  c #A68953",
">  c #AB8B54",
",  c #A78B59",
"<  c #AB8D59",
"1  c #B28F52",
"2  c #AE905C",
"3  c #B59255",
"4  c #B99555",
"5  c #BE9957",
"6  c #B4945B",
"7  c #BA9658",
"8  c #BC995B",
"9  c #AD9263",
"0  c #B19663",
"q  c #B69863",
"w  c #BC9C62",
"e  c #B29768",
"r  c #B59A6A",
"t  c #BA9E6A",
"y  c #B79E72",
"u  c #BBA375",
"i  c #BBA47A",
"p  c #BFA87F",
"a  c #C39D5A",
"s  c #C6A05D",
"d  c #C8A25F",
"f  c #C19F62",
"g  c #C5A263",
"h  c #CAA563",
"j  c #CEA966",
"k  c #C6A468",
"l  c #C8A669",
"z  c #C7A86C",
"x  c #CDAA6B",
"c  c #D0AA67",
"v  c #D2AD6B",
"b  c #D6B16E",
"n  c #D8B36F",
"m  c #CEAE70",
"M  c #C0A87F",
"N  c #D1AF70",
"B  c #D5B271",
"V  c #DAB573",
"C  c #DEB976",
"Z  c #DAB778",
"A  c #DDBB7B",
"S  c #E0BB77",
"D  c #E1BD7A",
"F  c #E5C17C",
"G  c #BFA982",
"H  c #C1AC86",
"J  c #C1AE8A",
"K  c #C6B18D",
"L  c #C9B38D",
"P  c #DEBF88",
"I  c #C7B492",
"U  c #C8B694",
"Y  c #CDBA96",
"T  c #CBBA9B",
"R  c #D1BF9D",
"E  c #E1BF81",
"W  c #CFBFA1",
"Q  c #D0BFA3",
"!  c #E1C795",
"~  c #E9CE9C",
"^  c #ECD19E",
"/  c #CFC0A3",
"(  c #D3C3A5",
")  c #D4C6AB",
"_  c #D6C8AD",
"`  c #D8C9AC",
"'  c #D7C9B0",
"]  c #D9CCB3",
"[  c #DBCFB9",
"{  c #DED3BE",
"}  c #DFD4C1",
"|  c #E1D6C2",
" . c #E3D8C7",
".. c #E4DBCB",
"X. c #E8DFCF",
"o. c #E7DFD0",
"O. c #E9E2D4",
"+. c #ECE6DA",
"@. c #EEE8DE",
"#. c #EFEAE1",
"$. c #F1ECE3",
"%. c #F4EFE8",
"&. c #F5F2EB",
"*. c #F7F4F0",
"=. c #F9F7F3",
"-. c #FAF9F5",
";. c #FFFFFF",
":. c None",
/* pixels */
":.:.:.:.:.:.:.:.:.:.:.:.:.:.:.:.:.:.:.:.:.:.:.:.:.:.:.:.:.:.:.:.:.:.:.:.:.:.:.:.:.:.:.:.:.:.:.:.",
":.:.:.:.:.:.:.:.:.:.:.:.:.:.:.:.:.:.:.:.:.:.:.:.:.:.:.:.:.:.:.:.:.:.:.:.:.:.:.:.:.:.:.:.:.:.:.:.",
":.:.:.:.:.:.:.:.:.:.:.:.:.:.:.:.:.:.:.:.:.:.:.:.:.:.:.:.:.:.:.:.:.:.:.:.:.:.:.:.:.:.:.:.:.:.:.:.",
":.:.:.:.:.:.:.:.:.:.:.:.:.:.:.:.:.:.:.:.:.:.:.:.:.:.:.:.:.:.:.:.:.:.:.:.:.:.:.:.:.:.:.:.:.:.:.:.",
":.:.:.:.:.:.:.:.:.:.:.:.:.:.:.:.:.:.:.:.:.:.:.:.:.:.:.:.:.:.:.:.:.:.:.:.:.:.:.:.:.:.:.:.:.:.:.:.",
":.:.:.:.:.:.$ % % $ % % % % % $ % % $ $ % % % % % % % % % % % % % % % % % % % % % % :.:.:.:.:.:.",
":.:.:.:.:.e ! ~ ~ ~ ~ ~ ^ ^ ^ ^ ^ ^ ~ ~ ^ ^ ^ ^ ^ ^ ^ ^ ^ ^ ^ ^ ^ ^ ~ ^ ^ ~ ~ ~ ~ ! e :.:.:.:.:.",
":.:.:.:.$ P A D C D F D F F D D C Z Z Z D D F F F E F F E F F F F F D F D D D D D D P $ :.:.:.:.",
":.:.:.:.$ E C D D D D C Z V Z Z B z z x m B A A F F F F F F D F D D D D D D S S D D E $ :.:.:.:.",
":.:.:.:.$ E C C C D C V B x x Z m w R L t B A Z S F D D D F D D D D D D D D S S C C E $ :.:.:.:.",
":.:.:.:.$ E C C C Z V m k q w m x t -.@.w B B x N V S D D D D D S D S S D S S C C C E $ :.:.:.:.",
":.:.:.:.% A C C C n m k u &.) q q ( ;.-.q z k q w m V S S D S D S S S C S S C C C C D $ :.:.:.:.",
":.:.:.:.$ A V V C V N l r =.;.@.o.;.;.;.` t Y $.Y w m V S S S C C C C C C C C C V V A $ :.:.:.:.",
":.:.:.:.$ A V V n b B x w ` ;.;.;.&.%.;.;.;.;.;.R w m B S S C C C C C C C V C V V V C $ :.:.:.:.",
":.:.:.:.$ A V n m l k k w ( ;.$.K 0 q w o.;.;.{ q x b V C S C V C C C V n C V C V V A % :.:.:.:.",
":.:.:.:.$ A n n x w 0 u T =.-.u w l l k q O.;.I f x m N B V S V V C n C V n V V n n A # :.:.:.:.",
":.:.:.:.% C n b l 6 o.;.;.;.| q x N b x f K ;...6 w w z N V V V V V V V V V n n n n A $ :.:.:.:.",
":.:.:.:.# V b v l 6 Y +.;.;.( 8 x b n N k u ;.;.=.{ 0 g N V V V V V n n V n n n n n Z $ :.:.:.:.",
":.:.:.:.# Z n v l w 8 2 I ;.} q l m N j w I ;.;.;.;.0 g v b V n b n n n n n n n b b Z $ :.:.:.:.",
":.:.:.:.# Z n v v x k k 2 -.-.r 8 k k f 2 O.;.) u e 2 g l b n v x v N b n b b b b v Z $ :.:.:.:.",
":.:.:.:.$ Z N b N x g 6 K ;.;.&.p 2 2 r ..;.+.6 2 6 M < k m v k g k l v b b b b b v V $ :.:.:.:.",
":.:.:.:.# n v v j l 8 y =.;.;.;.;.&.&.-.;.;.%.2 2 $.;.H 8 l l 8 < 2 w l j b b b v v B $ :.:.:.:.",
":.:.:.:.$ n v v x j w r $.( 9 p -.;.;.+. .;.;.I < $.;. .2 w 8 9 @.} 2 a h c v v v v n $ :.:.:.:.",
":.:.:.:.$ B v v v j g 6 , 6 f 7 [ ;.O.< < i %.K < *.;.;.Y < y $.;.=.2 w j v v v v v n $ :.:.:.:.",
":.:.:.:.# N c c v j j g a g g 6 W ;.K 9 ) r , : K ;.;.;.;.;.;.;.;.' 6 g j x c v v c n $ :.:.:.:.",
":.:.:.:.# Z v c v v c j h l k 6 e T 2 ] ;.;.@.+.-.;.;.;.;.;.;.;.;.G 6 h h l g j c c N # :.:.:.:.",
":.:.:.:.# N c c c c c c j j l a q 7 6 y &.;.;.;.;.o.H 9 e W +.;.;.T 2 8 8 8 8 k c c N # :.:.:.:.",
":.:.:.:.# b j x c c c j j j j l g g f 6 i -.;.;.{ < 7 8 8 6 <  .;.=.I y r 9 6 g j c N # :.:.:.:.",
":.:.:.:.# m j j j j j j j j j j h h g 8 < ..;.$.> q s h g g 6 < -.;.;.;.;.| < a h j v @ :.:.:.:.",
":.:.:.:.# v h j j j j j j j j h h g f 8 : +.;.R < s g j j g a < ] ;.;.;.;.[ : 8 g j v # :.:.:.:.",
":.:.:.:.# v h h j j h j j j j h 8 7 < < ) ;.;.K 4 s h j j h s 2 Q ;.;.} e - 4 w h j x # :.:.:.:.",
":.:.:.:.# j h j d j h j h j j g 8 - ) =.;.;.;.U 3 f h j j g a > ) ;.o.: 4 8 a f a h x # :.:.:.:.",
":.:.:.:.# x h h h h j h h h j d 8 = #.;.;.;.;.o.: 8 g s d 8 8 = &.;.) < 8 f d h h d x @ :.:.:.:.",
":.:.:.:.@ j d d d d d h h h d d 8 < i I T  .;.;.K - 3 8 8 6 : / ;.;.$.: 4 8 a h h h x @ :.:.:.:.",
":.:.:.:.+ j d h h d d h h h d d a 7 < 1 < = { ;.;.R , : : 2 ) ;.;.;.;...: 3 7 f d d h @ :.:.:.:.",
":.:.:.:.+ l d d d d d d d d h d a 5 a 8 5 1 I ;.;.;.-.+.+.;.;.;.=.;.;.;.T - 7 a d d h @ :.:.:.:.",
":.:.:.:.@ j d a d s s d d d d d s s d s 7 : [ ;.;.;.;.;.;.;.;.U * : U .., 3 a a d d l + :.:.:.:.",
":.:.:.:.+ l d d s s s s d d d d s s s 5 3 : =.;.*.G y ..;.;.#.* 3 3 : & - 4 a d a a h + :.:.:.:.",
":.:.:.:.+ h a a s s s s s d s s s s a 7 > 2 &.%., > > = &.;. .= 4 5 7 4 7 a a a a d h + :.:.:.:.",
":.:.:.:.+ d a a a a s a a a s a s s s 5 4 > = > > 3 7 - T ;. .= 3 a a 5 a a a a a a h @ :.:.:.:.",
":.:.:.:.+ h a a a a a a a a a a s a a a a 3 1 - 3 5 5 1 : U e * 1 a a a a a a a a a g @ :.:.:.:.",
":.:.:.:.+ a a a a a a a a a a a a a a a a 5 5 3 5 a a 3 - - - 1 4 a a a a a a a a a g @ :.:.:.:.",
":.:.:.:.O a a a a a a a a a a a a a a a a a a 5 5 a 5 4 4 4 4 5 a a a a a a a a a a a O :.:.:.:.",
":.:.:.:.. & f k h h h h h l h j l l l l h l l l l l l k k k k z h f l k k d k l h f & . :.:.:.:.",
":.:.:.:.:.  X O O O O O o O O O O O O O O O O O O O O O O O O O O O O O O O O O O O   :.:.:.:.:.",
":.:.:.:.:.:.:.:.:.:.:.:.:.:.:.:.:.:.:.:.:.:.:.:.:.:.:.:.:.:.:.:.:.:.:.:.:.:.:.:.:.:.:.:.:.:.:.:.",
":.:.:.:.:.:.:.:.:.:.:.:.:.:.:.:.:.:.:.:.:.:.:.:.:.:.:.:.:.:.:.:.:.:.:.:.:.:.:.:.:.:.:.:.:.:.:.:.",
":.:.:.:.:.:.:.:.:.:.:.:.:.:.:.:.:.:.:.:.:.:.:.:.:.:.:.:.:.:.:.:.:.:.:.:.:.:.:.:.:.:.:.:.:.:.:.:."
};
