/* XPM */
static char *windows[] = {
/* columns rows colors chars-per-pixel */
"48 48 66 1 ",
"  c #284B47",
". c #2A4F4D",
"X c #326761",
"o c #336A64",
"O c #356F69",
"+ c #37736D",
"@ c #39756F",
"# c #3B7771",
"$ c #3D7873",
"% c #407C76",
"& c #44887E",
"* c #478B83",
"= c #4D9A8F",
"- c #4B9C91",
"; c #519E93",
": c #4EA296",
"> c #4FA599",
", c #50A296",
"< c #52A69A",
"1 c #55A99D",
"2 c #57ADA1",
"3 c #59ADA1",
"4 c #55B1A3",
"5 c #5EB2A5",
"6 c #5BB7AA",
"7 c #57B8A9",
"8 c #5ABBAD",
"9 c #5EBEB0",
"0 c #67B1A7",
"q c #60B5A8",
"w c #63BFB2",
"e c #5BC5B5",
"r c #5EC7B8",
"t c #5FC8B9",
"y c #63C3B5",
"u c #63C6B8",
"i c #68C7BA",
"p c #63CBBC",
"a c #6ACABC",
"s c #66CFC0",
"d c #6BCFC0",
"f c #67D0C0",
"g c #6CD3C4",
"h c #6FD7C8",
"j c #6FD8C8",
"k c #71D4C5",
"l c #73D7C8",
"z c #74DBCB",
"x c #7ADCCD",
"c c #7FDFD0",
"v c #7AE2D2",
"b c #88DED1",
"n c #81E1D2",
"m c #95E1D6",
"M c #9CEADE",
"N c #9FECE0",
"B c gray78",
"V c #CBCBCB",
"C c #C8DFDC",
"Z c #DADADA",
"A c #C9E1DD",
"S c #CCE3E0",
"D c #E2E2E2",
"F c #EAEAEA",
"G c #F7F7F7",
"H c None",
/* pixels */
"HHHHHHHHHHHHHHHHHHHHHHHHHHHHHHHHHHHHHHHHHHHHHHHH",
"HHHHHHHHHHHHHHHHHHHHHHHHHHHHHHHHHHHHHHHHHHHHHHHH",
"HHHHHHHHHHHHHHHHHHHHHHHHHHHHHHHHHHHHHHHHHHHHHHHH",
"HHHHHHHHHHHHHHHHHHHHHHHHHHHHHHHHHHHHHHHHHHHHHHHH",
"HHHHHHHHHHHHHHHHHHHHHHHHHHHHHHHHHHHHHHHHHHHHHHHH",
"HHHHHH$%%%%%%%$&%%$&%%$*%&$*&$%%$&%%&%%$%$HHHHHH",
"HHHHH0mMMMMNMNNNNNNNNNNNNNNNNNNNNNMMMMMMMm0HHHHH",
"HHHH$bxvvvvvvvvvvvvnvnvnvvnvnvvvvvvvvxvvvvb$HHHH",
"HHHH$nxvvvvvvvvvvvvvvnvvvnvvvnvvvvvvvvvvvxn%HHHH",
"HHHH$nvzzvzvvvvvvvvvvvvvvvvvvvvvvvvvvzzvzzn$HHHH",
"HHHH$vzzzvzvvvvvvvvvvvvvvvvvvvvvvvzvvvzzzzv$HHHH",
"HHHH$xvzzzzvzzvcvvvvvvvvvvvvvvvvzvvvzzvzzvc$HHHH",
"HHHH$czzvzzzllllzzlllxlxzxxzvzvvvzzzvzzzzzv$HHHH",
"HHHH$xjzzzkdaaaaaaaaaaaaaaaagjzzzvzvzzzzzzx$HHHH",
"HHHH$xzzzjayqqq555q55qqqqq5qigjzzzzzzzzzjlx$HHHH",
"HHHH#xjzjha6SGGGGGGGGGGGGGGS5ajzzzzzzjzjzzx$HHHH",
"HHHH@xlllda5GGGGGGGGGGGGGGGGqakzzjzjzjljjlz#HHHH",
"HHHH#vgjlgi3GGGGGGGGGGGGGGGGqakzzjjzzjjjjjx$HHHH",
"HHHH#xjjjgi3GGGGGGGGGGGGGGGG3iglzjllhhghjjl$HHHH",
"HHHH#lgjjdi6GGGGGGGGGGGGGGGG3ugljjjlhhjhgll#HHHH",
"HHHH#zggggy3GGGGGGGGGGGGGGGG1waggaddgjjgggl#HHHH",
"HHHH#lgggdy1GGGGGGGGGGGGGGGG;qwyuyuuppggggl#HHHH",
"HHHH#lfggdy1GGGGGGGGGGGGGGGG*,133333qpggggl#HHHH",
"HHHH@ggggdy3GGGGGGGGGGGGGGGGBDFGGGGA3ypgggj#HHHH",
"HHHH$kfggpw1GGGGGGGGGGGGGGGGBDGGGGGG5ypggdk$HHHH",
"HHHH#kfsgp91GGGGGGGGGGGGGGGGBDFGGGGG<yafgdg@HHHH",
"HHHH@gfffpy1AGGGGGGGGGGGGGGFVDGGGGGG<wpfpfk@HHHH",
"HHHH@kssspy711111<;&BBBBBBVVZDGGGGGG<ypsssg@HHHH",
"HHHH#dapsppy9899w62=DDDDDDDDFFGGGGGG<8pspsd#HHHH",
"HHHH@gpsffppppppiy7,FGGFFGFGGGGGGGGG<9tapsg#HHHH",
"HHHH#gppppspppsppi9<GGGGGGGGGGGGGGGG<8tpppa#HHHH",
"HHHH@fpppppspppspt8>GGGGGGGGGGGGGGGG>8tpppf#HHHH",
"HHHH@appppstsstspr8>GGGGGGGGGGGGGGGG:8etpta@HHHH",
"HHHH@pttpttptpptpr8>GGGGGGGGGGGGGGGG:7rppta@HHHH",
"HHHH@attttpttptpte8>CGGGGGGGGGGGGGGA>8ttttp@HHHH",
"HHHH@ptrttttttttree4>>>>>->>:::::::<49etttp#HHHH",
"HHHH@prrrtttttttrte877777777777777778eetteu@HHHH",
"HHHH+pryetetttttrrre9eeeeeeeeeeeee9eeettttu@HHHH",
"HHHH+peeeeeterttrrrrerrerrereeetretreeeeeeu@HHHH",
"HHHH+ueeeeereeteerereerrerreeeeeereeeeeeeeu@HHHH",
"HHHH+reeeeeeeeeeeeeeeeeeeeeeeeeeeeeeeeeeeey+HHHH",
"HHHH+ee8ee9eeeeeeeeeeeeeeeeeeeeeeeeeee8eeer+HHHH",
"HHHHOeeeeeeeeeeeeeeee999e9eeeeeeeeeee8eeee9OHHHH",
"HHHH.=yituuuiuuyiiiaussuusiiuuaiuyiuptiiye-.HHHH",
"HHHHH XooooooooooooooooooooooooooooooooooX HHHHH",
"HHHHHHHHHHHHHHHHHHHHHHHHHHHHHHHHHHHHHHHHHHHHHHHH",
"HHHHHHHHHHHHHHHHHHHHHHHHHHHHHHHHHHHHHHHHHHHHHHHH",
"HHHHHHHHHHHHHHHHHHHHHHHHHHHHHHHHHHHHHHHHHHHHHHHH"
};
