/* XPM */
static char *fonts[] = {
/* columns rows colors chars-per-pixel */
"48 48 105 2 ",
"   c #3C284B",
".  c #402A4F",
"X  c #523267",
"o  c #54336A",
"O  c #58356F",
"+  c #5C3773",
"@  c #5E3A76",
"#  c #603B77",
"$  c #623D79",
"%  c #64407C",
"&  c #7D4B9C",
"*  c #9456AC",
"=  c #975BAE",
"-  c #9859AF",
";  c #9655B4",
":  c #9857B5",
">  c #9758B2",
",  c #9B5CB3",
"<  c #9756B8",
"1  c #9957BD",
"2  c #9C5CBC",
"3  c #A05FBF",
"4  c #9567B1",
"5  c #9D61B4",
"6  c #9F60BA",
"7  c #A163B7",
"8  c #A169B6",
"9  c #A264BB",
"0  c #A56BBB",
"q  c #A96DBF",
"w  c #A573B9",
"e  c #A974BD",
"r  c #AC7BBE",
"t  c #9A57C0",
"y  c #9D5BC4",
"u  c #A05EC5",
"i  c #A15FC8",
"p  c #9F64C2",
"a  c #A463C5",
"s  c #A867C7",
"d  c #A469C6",
"f  c #A96BC4",
"g  c #A462CA",
"h  c #A866CC",
"j  c #A569C8",
"k  c #AB6BCC",
"l  c #AD75C1",
"z  c #AE7AC1",
"x  c #AF70CF",
"c  c #B17EC2",
"v  c #B072CE",
"b  c #B37FC8",
"n  c #A967D0",
"m  c #AD6CD3",
"M  c #B06FD7",
"N  c #B16FD8",
"B  c #AE70D3",
"V  c #B172D4",
"C  c #B474DB",
"Z  c #B877DF",
"A  c #B679DB",
"S  c #B97BDE",
"D  c #BB7AE2",
"F  c #B282C3",
"G  c #B68CC5",
"H  c #B684C9",
"J  c #B789C8",
"K  c #BA8DCA",
"L  c #B891C7",
"P  c #BD94CC",
"I  c #BE88DE",
"U  c #BE92D0",
"Y  c #BD81E1",
"T  c #C09BCE",
"R  c #C197D1",
"E  c #C39FD1",
"W  c #C2A1CF",
"Q  c #C6A3D4",
"!  c #CAA7D6",
"~  c #CAA9D5",
"^  c #CEADDA",
"/  c #CFB2DA",
"(  c #D1B5DC",
")  c #D5BADE",
"_  c #C595E1",
"`  c #CE9DEB",
"'  c #D09FED",
"]  c #D7BFE0",
"[  c #D8BFE1",
"{  c #D7C1E0",
"}  c #DAC4E2",
"|  c #DECAE6",
" . c #E0CCE7",
".. c #E1CCE8",
"X. c #E5D4EB",
"o. c #E7DAED",
"O. c #E9DCEE",
"+. c #EEE3F2",
"@. c #F0E6F4",
"#. c #F3EBF6",
"$. c #F5F0F7",
"%. c #F7F2F9",
"&. c #F9F5FB",
"*. c #FEFEFF",
"=. c None",
/* pixels */
"=.=.=.=.=.=.=.=.=.=.=.=.=.=.=.=.=.=.=.=.=.=.=.=.=.=.=.=.=.=.=.=.=.=.=.=.=.=.=.=.=.=.=.=.=.=.=.=.",
"=.=.=.=.=.=.=.=.=.=.=.=.=.=.=.=.=.=.=.=.=.=.=.=.=.=.=.=.=.=.=.=.=.=.=.=.=.=.=.=.=.=.=.=.=.=.=.=.",
"=.=.=.=.=.=.=.=.=.=.=.=.=.=.=.=.=.=.=.=.=.=.=.=.=.=.=.=.=.=.=.=.=.=.=.=.=.=.=.=.=.=.=.=.=.=.=.=.",
"=.=.=.=.=.=.=.=.=.=.=.=.=.=.=.=.=.=.=.=.=.=.=.=.=.=.=.=.=.=.=.=.=.=.=.=.=.=.=.=.=.=.=.=.=.=.=.=.",
"=.=.=.=.=.=.=.=.=.=.=.=.=.=.=.=.=.=.=.=.=.=.=.=.=.=.=.=.=.=.=.=.=.=.=.=.=.=.=.=.=.=.=.=.=.=.=.=.",
"=.=.=.=.=.=.$ % $ $ % % % % % % % % % % % % $ & % % $ & % % % % & $ $ % % % % $ % $ =.=.=.=.=.=.",
"=.=.=.=.=.4 _ ` ` ` ` ' ' ' ' ' ' ' ' ' ' ' ' ' ' ' ' ' ' ' ' ' ' ' ` ' ' ` ` ` ` _ 4 =.=.=.=.=.",
"=.=.=.=.$ I S D Z D D D D D D D D D D D Y Y D D D D D Y Y D D D D D D D D D D Z D S I $ =.=.=.=.",
"=.=.=.=.$ Y Z D Z D D D S S S S A Z S Z S S D D D Y D D D Y D D D D D D D Z D D D Z Y $ =.=.=.=.",
"=.=.=.=.$ Y Z Z Z Z Z C A C V V v v v v V C A S D Y D D D D D D D D Z D D Z Z Z C Z Y $ =.=.=.=.",
"=.=.=.=.$ Y Z Z Z Z C C v k f q b U U b q l v C D D D D D D D D D D Z D Z Z Z Z Z Z Y $ =.=.=.=.",
"=.=.=.=.$ D C C C S C C k H X.&.*.*.*.*.*.[ l v C Z Z D Z D D D Z D Z Z Z Z Z C C C S $ =.=.=.=.",
"=.=.=.=.$ S C C Z C C V k R *. .^ Q ^ o.*.*.@.f x C Z C C C C C C C S Z Z Z Z C C C D $ =.=.=.=.",
"=.=.=.=.$ S C C C C C V k e q f f k f f f @.*.^ f v v v m x v v x N C C C C C C C C S $ =.=.=.=.",
"=.=.=.=.$ A C C C C C M k f k f f f f q q E *.X.f v 0 9 9 9 9 0 x N C C C C C C C C S $ =.=.=.=.",
"=.=.=.=.$ A V N C C N B k f 0 H ^ [ ......O.*.#.0 x 9 &.*.*.*.l k M C C C C C N V N A $ =.=.=.=.",
"=.=.=.=.$ A N N C N M v f e +.*.*.*.*.@.@.#.*.&.9 k 9 *.*.*.*.z k x N N C N N C M N A $ =.=.=.=.",
"=.=.=.=.$ C M M N N m k 7 +.*.X.K l 9 9 9 P *.&.0 k 7 *.*.*.*.l f x k v v m M N N M C $ =.=.=.=.",
"=.=.=.=.$ C N m M M m f z *.*.0 s f k k f ~ *.&.0 k 7 *.*.*.*.r s a 9 9 a k k m V M A $ =.=.=.=.",
"=.=.=.=.# C N M M B k s J *.&.q f f k f 9 @.*.&.5 s 7 &.*.*.*.r e Q | ) L 9 s k B M V @ =.=.=.=.",
"=.=.=.=.@ C B m m m m s 0 *.*.) 7 9 9 0 | *.*.&.5 k 5 *.*.*.*.K $.*.*.*.*.[ 7 s h m V $ =.=.=.=.",
"=.=.=.=.$ N B m m N m s 5 ^ *.*.&...X.&.$.! *.&.7 s 7 &.*.*.*.&.*.*.*.*.*.*.~ 7 k n C @ =.=.=.=.",
"=.=.=.=.# N m m m m n n s 5 P O.&.&.O.[ e z X. ., s 7 *.*.*.*.&.K 8 K &.*.*.&.7 a n V @ =.=.=.=.",
"=.=.=.=.@ M m m n m m m h s 9 , , 7 7 9 9 3 7 7 7 s , *.*.*.*.) 7 a 3 } *.*.*.J 9 s M $ =.=.=.=.",
"=.=.=.=.@ V m n m n m n n j s s s s s s h s s s s s , *.*.*.*.P 9 s 2 T *.*.*.Q 6 g B $ =.=.=.=.",
"=.=.=.=.@ V n n n h h h a a 6 5 , , , 7 9 a s s n a , &.*.*.*.r a j a c *.*.*./ 6 a m @ =.=.=.=.",
"=.=.=.=.@ B n n h h g 9 , r /  .#.#.X.[ J , , a s a , *.*.*.*.T 6 a 6 T *.*.*.E 6 a B @ =.=.=.=.",
"=.=.=.=.@ B n n h a 2 8 ) *.#.( P E X.*.*.&., 9 h a , *.*.*.*.[ 5 6 , } *.*.*.G 6 h m $ =.=.=.=.",
"=.=.=.=.@ B h g g 2 8 #.*.| 5 , 6 2 , { *.@., a h 9 - *.*.*.*.*.Q F Q *.*.*.#.5 6 g m @ =.=.=.=.",
"=.=.=.=.@ k h i 6 5 O.*.@.5 6 g g a 7 r *.} , g g a - *.*.*.*.$.*.*.*.*.*.*.P 2 p g m $ =.=.=.=.",
"=.=.=.=.# k g p , ( *.*.F 2 u h h g 2 8 X.L 2 g g a - &.*.*.*.r o.*.*.*.*.Q > 6 i g k + =.=.=.=.",
"=.=.=.=.@ h i 2 , %.*.#.> 6 g h g a u , , , 2 a a u - F F F F , , F ~ T w , y p i h h $ =.=.=.=.",
"=.=.=.=.@ h p 2 G *.*.) , 2 g h h g y y 3 u y g g y 2 2 1 2 2 2 2 , , < 1 y g g g u h @ =.=.=.=.",
"=.=.=.=.+ j t > ) *.*.G < g g g a g g p g g i g g u a g i i g g u a u u y i g g i g h + =.=.=.=.",
"=.=.=.=.@ j 2 > } *.*.w < u i g g 2 2 2 2 g g g g g g u n i i i g g a i i n i i i i h @ =.=.=.=.",
"=.=.=.=.+ g 2 > | *.*.5 2 u i u y 2 = - , g i i i i i g i i i i i i i i i i i i i u h + =.=.=.=.",
"=.=.=.=.@ g 2 * ( *.*.w 2 a y y , * } *.T 2 i i i i i i i i i i i i i i i u i i y g j + =.=.=.=.",
"=.=.=.=.+ a y > w *.*.P * < < , * T *.o.* 1 y i i i i y i i i i i i i i i y i y i y g + =.=.=.=.",
"=.=.=.=.+ g y < * { *.&.G * * r ~ *.o., : 2 u i i i i i i i i i u y i i y y y i y y g + =.=.=.=.",
"=.=.=.=.+ g y < * * W *.*.&.&.*.$.~ = : 1 y y u y y y i y i y y y i y y y i y y y y g + =.=.=.=.",
"=.=.=.=.+ i y t < ; * * w L G w = * ; 1 y y y y y y y y y y y y y y y y y y y y y y i + =.=.=.=.",
"=.=.=.=.+ p t y t 1 < ; ; * ; ; > < t t y y y y y y y y y y y y y y y y y y t y y y p + =.=.=.=.",
"=.=.=.=.O y t y t t 1 1 1 1 1 1 1 t y y y y t y y y t y y y y y y y t t t y t y t t y O =.=.=.=.",
"=.=.=.=.. & p j j j j j d d d d j j g j j j j j j h j d g h j j d g j j j g j j j p & . =.=.=.=.",
"=.=.=.=.=.  X o o o o o o o o o o o o o o o o o X o o o o o o o o o o o o o o o o X   =.=.=.=.=.",
"=.=.=.=.=.=.=.=.=.=.=.=.=.=.=.=.=.=.=.=.=.=.=.=.=.=.=.=.=.=.=.=.=.=.=.=.=.=.=.=.=.=.=.=.=.=.=.=.",
"=.=.=.=.=.=.=.=.=.=.=.=.=.=.=.=.=.=.=.=.=.=.=.=.=.=.=.=.=.=.=.=.=.=.=.=.=.=.=.=.=.=.=.=.=.=.=.=.",
"=.=.=.=.=.=.=.=.=.=.=.=.=.=.=.=.=.=.=.=.=.=.=.=.=.=.=.=.=.=.=.=.=.=.=.=.=.=.=.=.=.=.=.=.=.=.=.=."
};
