<?xml version="1.0" encoding="UTF-8" standalone="no"?>
<!-- Created with Inkscape (http://www.inkscape.org/) -->

<svg
   xmlns:dc="http://purl.org/dc/elements/1.1/"
   xmlns:cc="http://creativecommons.org/ns#"
   xmlns:rdf="http://www.w3.org/1999/02/22-rdf-syntax-ns#"
   xmlns:svg="http://www.w3.org/2000/svg"
   xmlns="http://www.w3.org/2000/svg"
   xmlns:xlink="http://www.w3.org/1999/xlink"
   xmlns:sodipodi="http://sodipodi.sourceforge.net/DTD/sodipodi-0.dtd"
   xmlns:inkscape="http://www.inkscape.org/namespaces/inkscape"
   width="48"
   height="48"
   id="svg2"
   version="1.1"
   inkscape:version="0.48.4 r9939"
   sodipodi:docname="jsm-windows.svg">
  <defs
     id="defs4">
    <linearGradient
       id="linearGradient7622">
      <stop
         style="stop-color:#000000;stop-opacity:1;"
         offset="0"
         id="stop7624" />
      <stop
         id="stop7630"
         offset="0.5"
         style="stop-color:#000000;stop-opacity:0.251" />
      <stop
         style="stop-color:#000000;stop-opacity:1;"
         offset="1"
         id="stop7626" />
    </linearGradient>
    <linearGradient
       id="linearGradient7251">
      <stop
         style="stop-color:#fc93dc;stop-opacity:1;"
         offset="0"
         id="stop7253" />
      <stop
         style="stop-color:#da72d3;stop-opacity:1"
         offset="1"
         id="stop7255" />
    </linearGradient>
    <radialGradient
       cx="4.9929786"
       cy="43.5"
       r="2.5"
       fx="4.9929786"
       fy="43.5"
       id="radialGradient3337-2-2"
       xlink:href="#linearGradient3688-166-749-4-0-3-8"
       gradientUnits="userSpaceOnUse"
       gradientTransform="matrix(2.003784,0,0,1.4,27.98813,-17.4)" />
    <linearGradient
       id="linearGradient3688-166-749-4-0-3-8">
      <stop
         id="stop2883-4-0-1-8"
         style="stop-color:#181818;stop-opacity:1"
         offset="0" />
      <stop
         id="stop2885-9-2-9-6"
         style="stop-color:#181818;stop-opacity:0"
         offset="1" />
    </linearGradient>
    <radialGradient
       cx="4.9929786"
       cy="43.5"
       r="2.5"
       fx="4.9929786"
       fy="43.5"
       id="radialGradient3339-1-4"
       xlink:href="#linearGradient3688-464-309-9-2-4-2"
       gradientUnits="userSpaceOnUse"
       gradientTransform="matrix(2.003784,0,0,1.4,-20.01187,-104.4)" />
    <linearGradient
       id="linearGradient3688-464-309-9-2-4-2">
      <stop
         id="stop2889-7-9-6-9"
         style="stop-color:#181818;stop-opacity:1"
         offset="0" />
      <stop
         id="stop2891-6-6-1-7"
         style="stop-color:#181818;stop-opacity:0"
         offset="1" />
    </linearGradient>
    <linearGradient
       y2="39.999443"
       x2="25.058096"
       y1="47.027729"
       x1="25.058096"
       gradientUnits="userSpaceOnUse"
       id="linearGradient21034"
       xlink:href="#linearGradient3702-501-757-8-4-1-1"
       inkscape:collect="always" />
    <linearGradient
       id="linearGradient3702-501-757-8-4-1-1">
      <stop
         id="stop2895-8-9-9-1"
         style="stop-color:#181818;stop-opacity:0"
         offset="0" />
      <stop
         id="stop2897-7-8-7-7"
         style="stop-color:#181818;stop-opacity:1"
         offset="0.5" />
      <stop
         id="stop2899-4-5-1-5"
         style="stop-color:#181818;stop-opacity:0"
         offset="1" />
    </linearGradient>
    <radialGradient
       inkscape:collect="always"
       xlink:href="#linearGradient3671-580-6"
       id="radialGradient20986"
       gradientUnits="userSpaceOnUse"
       gradientTransform="matrix(0,9.1402449,-11.221301,0,136.56277,926.47473)"
       cx="7.1448598"
       cy="10.031169"
       fx="7.1448598"
       fy="10.031169"
       r="12.671875" />
    <linearGradient
       id="linearGradient3671-580-6">
      <stop
         id="stop4088-6"
         style="stop-color:#fc9396;stop-opacity:1"
         offset="0" />
      <stop
         id="stop4090-4"
         style="stop-color:#da7572;stop-opacity:1"
         offset="0.26238" />
      <stop
         id="stop4092-6"
         style="stop-color:#ab443f;stop-opacity:1"
         offset="0.704952" />
      <stop
         id="stop4094-2"
         style="stop-color:#582b2b;stop-opacity:1"
         offset="1" />
    </linearGradient>
    <linearGradient
       inkscape:collect="always"
       xlink:href="#linearGradient3924-2-2-5-8"
       id="linearGradient20983"
       gradientUnits="userSpaceOnUse"
       gradientTransform="translate(-2.094513e-6,1005.3622)"
       x1="23.99999"
       y1="4.999989"
       x2="23.99999"
       y2="43" />
    <linearGradient
       id="linearGradient3924-2-2-5-8">
      <stop
         id="stop3926-9-4-9-6"
         style="stop-color:#ffffff;stop-opacity:1"
         offset="0" />
      <stop
         id="stop3928-9-8-6-5"
         style="stop-color:#ffffff;stop-opacity:0.23529412"
         offset="0.06316455" />
      <stop
         id="stop3930-3-5-1-7"
         style="stop-color:#ffffff;stop-opacity:0.15686275"
         offset="0.95056331" />
      <stop
         id="stop3932-8-0-4-8"
         style="stop-color:#ffffff;stop-opacity:0.39215687"
         offset="1" />
    </linearGradient>
    <linearGradient
       id="linearGradient3707-662-8">
      <stop
         id="stop4098-9"
         style="stop-color:#542f57;stop-opacity:1"
         offset="0" />
      <stop
         id="stop4100-6"
         style="stop-color:#bb5ca4;stop-opacity:1"
         offset="1" />
    </linearGradient>
    <linearGradient
       gradientTransform="translate(-2e-7,945.36217)"
       inkscape:collect="always"
       xlink:href="#linearGradient25914"
       id="linearGradient26143"
       x1="32"
       y1="56"
       x2="32"
       y2="8"
       gradientUnits="userSpaceOnUse" />
    <linearGradient
       id="linearGradient25914">
      <stop
         style="stop-color:#000000;stop-opacity:1;"
         offset="0"
         id="stop25916" />
      <stop
         id="stop25922"
         offset="0.5"
         style="stop-color:#000000;stop-opacity:0.25098041;" />
      <stop
         style="stop-color:#000000;stop-opacity:1;"
         offset="1"
         id="stop25918" />
    </linearGradient>
    <linearGradient
       inkscape:collect="always"
       xlink:href="#linearGradient3671-580-6"
       id="linearGradient24496"
       x1="19.76383"
       y1="30.5"
       x2="52.036171"
       y2="30.5"
       gradientUnits="userSpaceOnUse" />
    <linearGradient
       id="linearGradient7833">
      <stop
         id="stop7835"
         style="stop-color:#fc93dc;stop-opacity:1"
         offset="0" />
      <stop
         id="stop7837"
         style="stop-color:#da72d3;stop-opacity:1"
         offset="0.26238" />
      <stop
         id="stop7839"
         style="stop-color:#a33fab;stop-opacity:1"
         offset="0.704952" />
      <stop
         id="stop7841"
         style="stop-color:#502b58;stop-opacity:1"
         offset="1" />
    </linearGradient>
    <linearGradient
       inkscape:collect="always"
       xlink:href="#linearGradient3671-580-6"
       id="linearGradient24500"
       gradientUnits="userSpaceOnUse"
       x1="35.900002"
       y1="14.190327"
       x2="35.900002"
       y2="46.809681" />
    <linearGradient
       id="linearGradient7844">
      <stop
         id="stop7846"
         style="stop-color:#fc93dc;stop-opacity:1"
         offset="0" />
      <stop
         id="stop7848"
         style="stop-color:#da72d3;stop-opacity:1"
         offset="0.26238" />
      <stop
         id="stop7850"
         style="stop-color:#a33fab;stop-opacity:1"
         offset="0.704952" />
      <stop
         id="stop7852"
         style="stop-color:#502b58;stop-opacity:1"
         offset="1" />
    </linearGradient>
    <linearGradient
       inkscape:collect="always"
       xlink:href="#linearGradient3671-580-6"
       id="linearGradient26148"
       gradientUnits="userSpaceOnUse"
       x1="32"
       y1="24"
       x2="32"
       y2="48"
       gradientTransform="translate(0,988.36218)" />
    <linearGradient
       id="linearGradient7855">
      <stop
         id="stop7857"
         style="stop-color:#fc93dc;stop-opacity:1"
         offset="0" />
      <stop
         id="stop7859"
         style="stop-color:#da72d3;stop-opacity:1"
         offset="0.26238" />
      <stop
         id="stop7861"
         style="stop-color:#a33fab;stop-opacity:1"
         offset="0.704952" />
      <stop
         id="stop7863"
         style="stop-color:#502b58;stop-opacity:1"
         offset="1" />
    </linearGradient>
    <linearGradient
       inkscape:collect="always"
       xlink:href="#linearGradient3702-501-757-8-4-1-1"
       id="linearGradient6326"
       gradientUnits="userSpaceOnUse"
       x1="25.058096"
       y1="47.027729"
       x2="25.058096"
       y2="39.999443"
       gradientTransform="matrix(1.2857143,0,0,0.57142854,-6.8571431,1023.5052)" />
    <radialGradient
       inkscape:collect="always"
       xlink:href="#linearGradient3688-464-309-9-2-4-2"
       id="radialGradient6329"
       gradientUnits="userSpaceOnUse"
       gradientTransform="matrix(1.6030272,0,0,0.8,-14.009496,-1083.1623)"
       cx="4.9929786"
       cy="43.5"
       fx="4.9929786"
       fy="43.5"
       r="2.5" />
    <radialGradient
       inkscape:collect="always"
       xlink:href="#linearGradient3688-166-749-4-0-3-8"
       id="radialGradient6332"
       gradientUnits="userSpaceOnUse"
       gradientTransform="matrix(1.6030272,0,0,0.8,33.990503,1013.5623)"
       cx="4.9929786"
       cy="43.5"
       fx="4.9929786"
       fy="43.5"
       r="2.5" />
  </defs>
  <sodipodi:namedview
     id="base"
     pagecolor="#ffffff"
     bordercolor="#666666"
     borderopacity="1.0"
     inkscape:pageopacity="0.0"
     inkscape:pageshadow="2"
     inkscape:zoom="1"
     inkscape:cx="61.732208"
     inkscape:cy="26.784649"
     inkscape:document-units="px"
     inkscape:current-layer="layer1"
     showgrid="false"
     inkscape:showpageshadow="false"
     inkscape:window-width="1364"
     inkscape:window-height="701"
     inkscape:window-x="1024"
     inkscape:window-y="27"
     inkscape:window-maximized="1"
     inkscape:snap-bbox="true"
     inkscape:bbox-paths="true"
     inkscape:bbox-nodes="true"
     inkscape:snap-bbox-edge-midpoints="true"
     inkscape:snap-bbox-midpoints="true">
    <inkscape:grid
       type="xygrid"
       id="grid6334"
       empspacing="12"
       visible="true"
       enabled="true"
       snapvisiblegridlinesonly="true" />
  </sodipodi:namedview>
  <metadata
     id="metadata7">
    <rdf:RDF>
      <cc:Work
         rdf:about="">
        <dc:format>image/svg+xml</dc:format>
        <dc:type
           rdf:resource="http://purl.org/dc/dcmitype/StillImage" />
        <dc:title></dc:title>
      </cc:Work>
    </rdf:RDF>
  </metadata>
  <g
     inkscape:label="Layer 1"
     inkscape:groupmode="layer"
     id="layer1"
     transform="translate(0,-1004.3622)">
    <g
       id="g6336"
       style="opacity:0.6">
      <rect
         style="opacity:1;fill:url(#radialGradient6332);fill-opacity:1;stroke:none"
         id="rect2801-5-5-7-9"
         y="1046.3623"
         x="42"
         height="4"
         width="4" />
      <rect
         style="opacity:1;fill:url(#radialGradient6329);fill-opacity:1;stroke:none"
         id="rect3696-3-0-3-7"
         transform="scale(-1,-1)"
         y="-1050.3623"
         x="-6"
         height="4"
         width="4" />
      <rect
         style="opacity:1;fill:url(#linearGradient6326);fill-opacity:1;stroke:none"
         id="rect3700-5-6-8-4"
         y="1046.3623"
         x="6"
         height="4"
         width="36" />
    </g>
    <rect
       style="color:#000000;fill:url(#radialGradient20986);fill-opacity:1.0;fill-rule:nonzero;stroke:none;stroke-width:0.99999994000000003;marker:none;visibility:visible;display:inline;overflow:visible;enable-background:accumulate"
       id="rect5505-21-3-8-5-2"
       y="1009.8622"
       x="4.5"
       ry="2"
       rx="2"
       height="39"
       width="39" />
    <path
       inkscape:connector-curvature="0"
       id="path4043"
       d="m 23,1015.3622 c -4.25189,0 -8,4.2465 -8,10 l 0,8 c 0,5.7535 3.74811,10 8,10 l 1,0 c 4.25189,0 8,-4.2465 8,-10 l 0,-8 c 0,-5.7535 -3.74811,-10 -8,-10 l 0,1.5 0,0.5 0,0.062 c 1.14126,0.2324 2,1.2256 2,2.4375 l 0,3 c 0,1.2119 -0.85874,2.2052 -2,2.4375 l 0,0.062 0,0.5 0,1.5 c 0,0.5523 0.0523,1 -0.5,1 -0.55228,0 -0.5,-0.4477 -0.5,-1 l 0,-1.5 0,-0.5 0,-0.062 c -1.14126,-0.2323 -2,-1.2256 -2,-2.4375 l 0,-3 c 0,-1.2119 0.85874,-2.2051 2,-2.4375 l 0,-0.062 0,-0.5 0,-1.5 z m 0.5,3 c -0.831,0 -1.5,0.669 -1.5,1.5 l 0,3 c 0,0.831 0.669,1.5 1.5,1.5 0.831,0 1.5,-0.669 1.5,-1.5 l 0,-3 c 0,-0.831 -0.669,-1.5 -1.5,-1.5 z"
       style="color:#bebebe;fill:#ffffff;fill-opacity:1;fill-rule:nonzero;stroke:#000000;stroke-width:4;marker:none;visibility:visible;display:inline;overflow:visible;filter:url(#filter7554);enable-background:accumulate;stroke-opacity:1;stroke-miterlimit:4;stroke-dasharray:none;opacity:0.06" />
    <path
       style="color:#bebebe;fill:#ffffff;fill-opacity:1;fill-rule:nonzero;stroke:#000000;stroke-width:6;marker:none;visibility:visible;display:inline;overflow:visible;filter:url(#filter7554);enable-background:accumulate;stroke-opacity:1;stroke-miterlimit:4;stroke-dasharray:none;opacity:0.03"
       d="m 23,1015.3622 c -4.25189,0 -8,4.2465 -8,10 l 0,8 c 0,5.7535 3.74811,10 8,10 l 1,0 c 4.25189,0 8,-4.2465 8,-10 l 0,-8 c 0,-5.7535 -3.74811,-10 -8,-10 l 0,1.5 0,0.5 0,0.062 c 1.14126,0.2324 2,1.2256 2,2.4375 l 0,3 c 0,1.2119 -0.85874,2.2052 -2,2.4375 l 0,0.062 0,0.5 0,1.5 c 0,0.5523 0.0523,1 -0.5,1 -0.55228,0 -0.5,-0.4477 -0.5,-1 l 0,-1.5 0,-0.5 0,-0.062 c -1.14126,-0.2323 -2,-1.2256 -2,-2.4375 l 0,-3 c 0,-1.2119 0.85874,-2.2051 2,-2.4375 l 0,-0.062 0,-0.5 0,-1.5 z m 0.5,3 c -0.831,0 -1.5,0.669 -1.5,1.5 l 0,3 c 0,0.831 0.669,1.5 1.5,1.5 0.831,0 1.5,-0.669 1.5,-1.5 l 0,-3 c 0,-0.831 -0.669,-1.5 -1.5,-1.5 z"
       id="path4041"
       inkscape:connector-curvature="0" />
    <rect
       style="opacity:0.3;fill:none;stroke:url(#linearGradient20983);stroke-width:1;stroke-linecap:round;stroke-linejoin:round;stroke-miterlimit:4;stroke-opacity:1;stroke-dasharray:none;stroke-dashoffset:0"
       id="rect6741-5-0-2-3"
       y="1010.8622"
       x="5.499999"
       ry="1"
       rx="1"
       height="37"
       width="37" />
    <rect
       style="opacity:0.59999999999999998;color:#000000;fill:none;stroke:#582b2b;stroke-width:1;stroke-linecap:round;stroke-linejoin:round;stroke-miterlimit:4;stroke-opacity:1;stroke-dasharray:none;stroke-dashoffset:0;marker:none;visibility:visible;display:inline;overflow:visible;enable-background:accumulate"
       id="rect5505-21-3-8-9-1-1"
       y="4.499999"
       x="-1048.8622"
       ry="2"
       rx="2"
       height="39"
       width="39"
       transform="matrix(0,-1,1,0,0,0)" />
    <path
       style="color:#bebebe;fill:#ffffff;fill-opacity:1;fill-rule:nonzero;stroke:#000000;stroke-width:2;marker:none;visibility:visible;display:inline;overflow:visible;filter:url(#filter7554);enable-background:accumulate;stroke-opacity:1;stroke-miterlimit:4;stroke-dasharray:none;opacity:0.12"
       d="m 23,1015.3622 c -4.25189,0 -8,4.2465 -8,10 l 0,8 c 0,5.7535 3.74811,10 8,10 l 1,0 c 4.25189,0 8,-4.2465 8,-10 l 0,-8 c 0,-5.7535 -3.74811,-10 -8,-10 l 0,1.5 0,0.5 0,0.062 c 1.14126,0.2324 2,1.2256 2,2.4375 l 0,3 c 0,1.2119 -0.85874,2.2052 -2,2.4375 l 0,0.062 0,0.5 0,1.5 c 0,0.5523 0.0523,1 -0.5,1 -0.55228,0 -0.5,-0.4477 -0.5,-1 l 0,-1.5 0,-0.5 0,-0.062 c -1.14126,-0.2323 -2,-1.2256 -2,-2.4375 l 0,-3 c 0,-1.2119 0.85874,-2.2051 2,-2.4375 l 0,-0.062 0,-0.5 0,-1.5 z m 0.5,3 c -0.831,0 -1.5,0.669 -1.5,1.5 l 0,3 c 0,0.831 0.669,1.5 1.5,1.5 0.831,0 1.5,-0.669 1.5,-1.5 l 0,-3 c 0,-0.831 -0.669,-1.5 -1.5,-1.5 z"
       id="path4045"
       inkscape:connector-curvature="0" />
    <path
       inkscape:connector-curvature="0"
       id="path3098"
       d="m 23,1015.3622 c -4.25189,0 -8,4.2465 -8,10 l 0,8 c 0,5.7535 3.74811,10 8,10 l 1,0 c 4.25189,0 8,-4.2465 8,-10 l 0,-8 c 0,-5.7535 -3.74811,-10 -8,-10 l 0,1.5 0,0.5 0,0.062 c 1.14126,0.2324 2,1.2256 2,2.4375 l 0,3 c 0,1.2119 -0.85874,2.2052 -2,2.4375 l 0,0.062 0,0.5 0,1.5 c 0,0.5523 0.0523,1 -0.5,1 -0.55228,0 -0.5,-0.4477 -0.5,-1 l 0,-1.5 0,-0.5 0,-0.062 c -1.14126,-0.2323 -2,-1.2256 -2,-2.4375 l 0,-3 c 0,-1.2119 0.85874,-2.2051 2,-2.4375 l 0,-0.062 0,-0.5 0,-1.5 z m 0.5,3 c -0.831,0 -1.5,0.669 -1.5,1.5 l 0,3 c 0,0.831 0.669,1.5 1.5,1.5 0.831,0 1.5,-0.669 1.5,-1.5 l 0,-3 c 0,-0.831 -0.669,-1.5 -1.5,-1.5 z"
       style="color:#bebebe;fill:#ffffff;fill-opacity:1;fill-rule:nonzero;stroke:none;stroke-width:1.20000005;marker:none;visibility:visible;display:inline;overflow:visible;filter:url(#filter7554);enable-background:accumulate" />
  </g>
</svg>
