/* XPM */
static char *keyboard[] = {
/* columns rows colors chars-per-pixel */
"48 48 218 2 ",
"   c #4A4B28",
".  c #4F4F2A",
"X  c #666732",
"o  c #686A33",
"O  c #6E6F35",
"+  c #727336",
"@  c #727337",
"#  c #737337",
"$  c #737438",
"%  c #747438",
"&  c #747638",
"*  c #74763A",
"=  c #76763A",
"-  c #76763B",
";  c #76773B",
":  c #77773B",
">  c #77783C",
",  c #78783C",
"<  c #78783D",
"1  c #78793D",
"2  c #79793D",
"3  c #79793E",
"4  c #7B7B40",
"5  c #7C7B40",
"6  c #7C7C40",
"7  c #989C4B",
"8  c #9FA14C",
"9  c #A0A14D",
"0  c #A0A24D",
"q  c #A0A34D",
"w  c #A0A34E",
"e  c #A1A34F",
"r  c #A1A54E",
"t  c #A1A44F",
"y  c #A1A450",
"u  c #A2A551",
"i  c #A3A652",
"p  c #A4A752",
"a  c #A5A753",
"s  c #A5A853",
"d  c #A6A854",
"f  c #A7A855",
"g  c #A8AA51",
"h  c #A8AB51",
"j  c #A8A856",
"k  c #A8A956",
"l  c #A8A957",
"z  c #A8AA57",
"x  c #A8AA58",
"c  c #A8AB58",
"v  c #A9AB58",
"b  c #A9AC58",
"n  c #AAAC59",
"m  c #AAAD59",
"M  c #ABAD59",
"N  c #ACAE5A",
"B  c #ADAF5A",
"V  c #ADAE5B",
"C  c #AEAE5C",
"Z  c #AEAF5C",
"A  c #AEAF5D",
"S  c #AFB15C",
"D  c #AEB05D",
"F  c #AFB05D",
"G  c #AFB05E",
"H  c #B5B757",
"J  c #B4B857",
"K  c #B5B758",
"L  c #B5B858",
"P  c #B6B959",
"I  c #B7B959",
"U  c #B7BA58",
"Y  c #B6B85F",
"T  c #B8BA5A",
"R  c #B8BB5B",
"E  c #B8BC59",
"W  c #BCBF5B",
"Q  c #B9BC5C",
"!  c #BABD5D",
"~  c #BBBD5E",
"^  c #BCBE5F",
"/  c #B0B067",
"(  c #B7B861",
")  c #BDBE60",
"_  c #BDBF61",
"`  c #BEC258",
"'  c #BEC259",
"]  c #BFC359",
"[  c #BCC05B",
"{  c #BDC05B",
"}  c #BDC15B",
"|  c #BEC25B",
" . c #BFC25C",
".. c #BFC35C",
"X. c #BCC15E",
"o. c #BEC062",
"O. c #BFC163",
"+. c #BFC263",
"@. c #BEC264",
"#. c #C0C45A",
"$. c #C1C45B",
"%. c #C1C55B",
"&. c #C0C35C",
"*. c #C1C45C",
"=. c #C1C45D",
"-. c #C2C55C",
";. c #C2C55D",
":. c #C2C65C",
">. c #C3C65D",
",. c #C3C75D",
"<. c #C4C75E",
"1. c #C4C85E",
"2. c #C1C560",
"3. c #C2C661",
"4. c #C3C762",
"5. c #C0C364",
"6. c #C1C465",
"7. c #C3C566",
"8. c #C4C766",
"9. c #C4C667",
"0. c #C4C863",
"q. c #C5C964",
"w. c #C6CA65",
"e. c #C5C866",
"r. c #C5C867",
"t. c #C6C966",
"y. c #C7CB66",
"u. c #C4C768",
"i. c #C4C869",
"p. c #C6C868",
"a. c #C7C968",
"s. c #C6C869",
"d. c #C7C869",
"f. c #C6C969",
"g. c #C7C96A",
"h. c #C8C869",
"j. c #C8C86A",
"k. c #C8C96A",
"l. c #C8C96B",
"z. c #C8CA6B",
"x. c #CACB6B",
"c. c #C9CB6C",
"v. c #C9CC6C",
"b. c #CACD6D",
"n. c #CBCE6E",
"m. c #CCCF6F",
"M. c #CED06C",
"N. c #CED06D",
"B. c #CDD070",
"V. c #CED171",
"C. c #CFD172",
"Z. c #D0D273",
"A. c #D3D570",
"S. c #D3D571",
"D. c #D4D571",
"F. c #D4D670",
"G. c #D5D671",
"H. c #D5D672",
"J. c #D6D772",
"K. c #D6D773",
"L. c #D2D474",
"P. c #D4D676",
"I. c #D6D871",
"U. c #D9DB73",
"Y. c #DADB74",
"T. c #DADC74",
"R. c #DBDC75",
"E. c #DBDD75",
"W. c #DCDD75",
"Q. c #DCDD76",
"!. c #DDDE76",
"~. c #DDDE77",
"^. c #DEDE77",
"/. c #DEDF77",
"(. c #D7D879",
"). c #DADB7A",
"_. c #DBDC7B",
"`. c #DEDF78",
"'. c #DFDF78",
"]. c #DFDF7A",
"[. c #DCDD7C",
"{. c #DDDE7D",
"}. c #DDDF7F",
"|. c #DEDF7F",
" X c #DFE079",
".X c #E0E079",
"XX c #E0E07A",
"oX c #E0E17A",
"OX c #E1E17A",
"+X c #E1E17B",
"@X c #E2E17B",
"#X c #E2E27B",
"$X c #E3E27C",
"%X c #E3E37C",
"&X c #E3E37D",
"*X c #E4E37D",
"=X c #E4E47D",
"-X c #BEBE85",
";X c #C6C78E",
":X c #DCDD88",
">X c #DFE081",
",X c #E1E195",
"<X c #E8E99C",
"1X c #E9E99C",
"2X c #E9E99D",
"3X c #EAE99D",
"4X c #EAEA9D",
"5X c #EBEA9E",
"6X c #EBEB9E",
"7X c #ECEB9E",
"8X c #ECEB9F",
"9X c #F2F2E7",
"0X c #F2F3E7",
"qX c #F3F4E9",
"wX c #F4F4E9",
"eX c #F5F5EB",
"rX c gray100",
"tX c None",
/* pixels */
"tXtXtXtXtXtXtXtXtXtXtXtXtXtXtXtXtXtXtXtXtXtXtXtXtXtXtXtXtXtXtXtXtXtXtXtXtXtXtXtXtXtXtXtXtXtXtXtX",
"tXtXtXtXtXtXtXtXtXtXtXtXtXtXtXtXtXtXtXtXtXtXtXtXtXtXtXtXtXtXtXtXtXtXtXtXtXtXtXtXtXtXtXtXtXtXtXtX",
"tXtXtXtXtXtXtXtXtXtXtXtXtXtXtXtXtXtXtXtXtXtXtXtXtXtXtXtXtXtXtXtXtXtXtXtXtXtXtXtXtXtXtXtXtXtXtXtX",
"tXtXtXtXtXtXtXtXtXtXtXtXtXtXtXtXtXtXtXtXtXtXtXtXtXtXtXtXtXtXtXtXtXtXtXtXtXtXtXtXtXtXtXtXtXtXtXtX",
"tXtXtXtXtXtXtXtXtXtXtXtXtXtXtXtXtXtXtXtXtXtXtXtXtXtXtXtXtXtXtXtXtXtXtXtXtXtXtXtXtXtXtXtXtXtXtXtX",
"tXtXtXtXtXtX3 4 5 5 4 4 5 5 6 6 5 6 6 6 6 6 6 6 6 6 6 6 6 6 6 5 5 5 5 5 4 4 4 6 5 3 tXtXtXtXtXtX",
"tXtXtXtXtX/ ,X<X<X<X<X<X<X<X<X8X<X8X8X8X8X8X8X8X8X8X8X8X8X8X8X8X8X<X<X<X<X<X<X<X<X,X/ tXtXtXtXtX",
"tXtXtXtX3 :X]. X].$X.X$X$X*X$X$X=X=X*X*X*X*X*X=X=X*X*X*X=X=X=X.X$X*X*X$X$X.X X X X].:X3 tXtXtXtX",
"tXtXtXtX3 >X!.!..X.X.X.X.X.X$X$X&X&X$X&X.X&X$X&X*X*X&X&X$X$X$X.X$X.X.X$X.X.X X'.].!.>X3 tXtXtXtX",
"tXtXtXtX3 {.!.].!. X]. X.X.X.X.X.X.X.X$X*X&X.X$X$X.X.X$X.X$X&X.X.X.X.X.X X X'.'.!.]. X3 tXtXtXtX",
"tXtXtXtX3 {.T.!.!.!.!.!.!. X X]. X.X.X.X.X.X.X.X.X.X.X$X.X.X X X].].!.]. X].!.!.R.!.{.3 tXtXtXtX",
"tXtXtXtX3 ].!.T.R.!.!.].!.].!.!.'. X X.X.X.X X X.X.X.X.X X'.'. X!.].!.!.!.!.R.R.R.R.{.3 tXtXtXtX",
"tXtXtXtX3 [.Y.T.R.R.!.R.!.!.].].!.]. X!. X].!. X!.]. X X'. X!.!.].!.!.].!.R.R.R.R.U.[.< tXtXtXtX",
"tXtXtXtX> [.U.I.F.A.A.A.F.F.F.F.F.F.F.I.K.K.K.K.K.K.K.I.I.I.K.F.F.F.F.F.A.A.A.F.I.U.[.< tXtXtXtX",
"tXtXtXtX> ).F.m.x.d.d.d.j.d.d.d.l.d.x.l.z.d.z.z.z.z.d.d.d.z.d.x.d.d.d.d.d.d.d.v.M.F.[.- tXtXtXtX",
"tXtXtXtX, (.m.8.( S V C C C C G G G G C G C G G G C G G G G C C G B V G C C B ( j.M.(.; tXtXtXtX",
"tXtXtXtX> K.a.Y ;XwXrXrXrXrXrXrXrXrXrXrXrXrXrXrXrXrXrXrXrXrXrXrXrXrXrXrXrXrXwX;X( w.K.< tXtXtXtX",
"tXtXtXtX> L.8.V wXrXrXrXrXrXrXrXrXrXrXrXrXrXrXrXrXrXrXrXrXrXrXrXrXrXrXrXrXrXrXwXV 7.L.< tXtXtXtX",
"tXtXtXtX> C.5.V rXrXrXrXx m rXrXm V rXrXV V rXrXm V rXrXm V rXrXV m rXrXm m rXrXm 7.C.< tXtXtXtX",
"tXtXtXtX, m.5.x rXrXrXrXx m rXrXV m rXrXm m rXrXV m rXrXM m rXrXm m rXrXm k rXrXx @.V.< tXtXtXtX",
"tXtXtXtX- V.5.x rXrXrXrXrXrXrXrXrXrXrXrXrXrXrXrXrXrXrXrXrXrXrXrXrXrXrXrXrXrXrXrXx @.V.: tXtXtXtX",
"tXtXtXtX, m._ x rXrXrXrXrXrXrXrXrXrXrXrXrXrXrXrXrXrXrXrXrXrXrXrXrXrXrXrXrXrXrXrXk @.m.: tXtXtXtX",
"tXtXtXtX> m._ k rXrXk x rXrXz z rXrXz z rXrXz c rXrXm z rXrXk k rXrXx k rXrXrXrXk @.m.- tXtXtXtX",
"tXtXtXtX> m._ a rXrXj k rXrXz z rXrXz z rXrXz z rXrXx k rXrXx k rXrXk k rXrXrXrXa _ m.- tXtXtXtX",
"tXtXtXtX> b._ a rXrXrXrXrXrXrXrXrXrXrXrXrXrXrXrXrXrXrXrXrXrXrXrXrXrXrXrXrXrXrXrXs ^ b.- tXtXtXtX",
"tXtXtXtX> x._ a rXrXrXrXrXrXrXrXrXrXrXrXrXrXrXrXrXrXrXrXrXrXrXrXrXrXrXrXrXrXrXrXs ^ v.- tXtXtXtX",
"tXtXtXtX> x.~ i rXrXrXrXi z rXrXz i rXrXa a rXrXz s rXrXz s rXrXp p rXrXs s rXrXs ^ v.- tXtXtXtX",
"tXtXtXtX- x.~ i rXrXrXrXp p rXrXs s rXrXs s rXrXi s rXrXp s rXrXz p rXrXp p rXrXi ~ v.; tXtXtXtX",
"tXtXtXtX$ z.Q i rXrXrXrXrXrXrXrXrXrXrXrXrXrXrXrXrXrXrXrXrXrXrXrXrXrXrXrXrXrXrXrXt ~ d.$ tXtXtXtX",
"tXtXtXtX$ z.R y rXrXrXrXrXrXrXrXrXrXrXrXrXrXrXrXrXrXrXrXrXrXrXrXrXrXrXrXrXrXrXrXt R d.; tXtXtXtX",
"tXtXtXtX$ d.P y rXrXy i rXrXi y rXrXi i y i i i y i i i rXrXi t rXrXi t rXrXrXrXt U d.* tXtXtXtX",
"tXtXtXtX* d.P 8 rXrXy 8 rXrXi 8 rXrXi 8 y y y y y 8 i 8 rXrXi e rXrXe t rXrXrXrXt P i.* tXtXtXtX",
"tXtXtXtX% 8.P t qXrXrXrXrXrXrXrXrXrXrXrXrXrXrXrXrXrXrXrXrXrXrXrXrXrXrXrXrXrXrX0Xt P 8.- tXtXtXtX",
"tXtXtXtX$ 8.R g -X9XrXrXrXrXrXrXrXrXrXrXrXrXrXrXrXrXrXrXrXrXrXrXrXrXrXrXrXrX0X-Xg E 8.$ tXtXtXtX",
"tXtXtXtX$ w.{ K g e 8 8 8 8 8 e 8 8 8 8 8 8 8 8 8 8 8 8 8 8 e 8 e 8 e 8 8 8 e g U E w.@ tXtXtXtX",
"tXtXtXtX$ w.:.W U H J J J U H H P P U U P P P P P P P P K J U P H H H J J J H P W %.y.- tXtXtXtX",
"tXtXtXtX$ y.<.=.:.{ {  .{  . . .] ] ............ ...........] .. . .=. . .{  .=.:.1.0.- tXtXtXtX",
"tXtXtXtX@ w.:.:.:.:.1.:.<.<.<.<.1.1.1.1.1.1.1.1.,.,.,.,.1.0.1.1.<.:.<.<.:.:.:.:.:.:.0.# tXtXtXtX",
"tXtXtXtX@ 0.:.:.:.:.:.:.<.:.:.1.1.:.:.1.1.:.1.:.,.,.,.,.,.,.,.,.<.:.<.:.:.:.:.:.:.:.0.@ tXtXtXtX",
"tXtXtXtX@ 4.%.%.%.:.%.$.:.:.:.:.:.:.:.:.:.:.:.:.,.:.:.:.:.:.:.:.:.:.:.:.:.:.%.%.$.=.4.@ tXtXtXtX",
"tXtXtXtX@ 4.%.] %.{ ] %.%.%.%.%.:.:...%.%.%.:...:.:.] ,.] :.] :.%.%.:.:.%.] %.] $.$.4.$ tXtXtXtX",
"tXtXtXtX@ ,.] ` ` %.] ] %.{ %.%...] ..%.%.] ..] ] ..] ..] :.] ] ] %.{ ] ] ] ] ` { ` :.@ tXtXtXtX",
"tXtXtXtXO X.{ ` ` { ` { ] { ` #.] ] ] ] ` ` ] ] ] ] ] ] ] ] ] ] ] ] ] ] ` ` { ` ` {  .O tXtXtXtX",
"tXtXtXtX. 7 @.d.w.u.w.u.d.i.u.w.i.i.i.d.y.i.f.i.i.f.i.i.i.d.i.d.i.d.i.i.i.w.7.j.w.@.7 . tXtXtXtX",
"tXtXtXtXtX  X o o o o o o o o o o o o o o o o o o o o o o o o o o o o o o o o o o X   tXtXtXtXtX",
"tXtXtXtXtXtXtXtXtXtXtXtXtXtXtXtXtXtXtXtXtXtXtXtXtXtXtXtXtXtXtXtXtXtXtXtXtXtXtXtXtXtXtXtXtXtXtXtX",
"tXtXtXtXtXtXtXtXtXtXtXtXtXtXtXtXtXtXtXtXtXtXtXtXtXtXtXtXtXtXtXtXtXtXtXtXtXtXtXtXtXtXtXtXtXtXtXtX",
"tXtXtXtXtXtXtXtXtXtXtXtXtXtXtXtXtXtXtXtXtXtXtXtXtXtXtXtXtXtXtXtXtXtXtXtXtXtXtXtXtXtXtXtXtXtXtXtX"
};
