/* XPM */
static char *mouse[] = {
/* columns rows colors chars-per-pixel */
"48 48 79 1 ",
"  c #4D2929",
". c #673232",
"X c #6A3433",
"o c #733736",
"O c #733837",
"+ c #763B3A",
"@ c #783E3D",
"# c #7C4040",
"$ c #9C4E4B",
"% c #A14F4C",
"& c #A7514E",
"* c #A55754",
"= c #AB5553",
"- c #A75956",
"; c #AB5956",
": c #AD5B59",
"> c #B35754",
", c #B45956",
"< c #B95957",
"1 c #B15F5D",
"2 c #BD5C58",
"3 c #B7615F",
"4 c #BF615E",
"5 c #AE6462",
"6 c #B46563",
"7 c #BA6563",
"8 c #B46867",
"9 c #BF6966",
"0 c #BB6B6A",
"q c #B9706E",
"w c #BC7775",
"e c #B97A78",
"r c #C35E5A",
"t c #C5615D",
"y c #C8625F",
"u c #C46562",
"i c #CB6562",
"p c #C46965",
"a c #CD6965",
"s c #C66B69",
"d c #CA6C69",
"f c #D06B67",
"g c #D26D6A",
"h c #CD706E",
"j c #D5716E",
"k c #D8736F",
"l c #D47472",
"z c #DA7572",
"x c #DD7976",
"c c #DD7B79",
"v c #E27C7B",
"b c #DF817E",
"n c #E0827F",
"m c #C58887",
"M c #DE8988",
"N c #C59290",
"B c #CB9694",
"V c #CE9997",
"C c #CD9B9A",
"Z c #D29F9E",
"A c #E18281",
"S c #E19795",
"D c #EB9E9E",
"F c #EDA09F",
"G c #D2A4A3",
"H c #D5A8A7",
"J c #D2AAA9",
"K c #D9B2B1",
"L c #DCBCBB",
"P c #E4C5C5",
"I c #EAD5D5",
"U c #EBD8D7",
"Y c #EEE0DF",
"T c #F2E3E3",
"R c #F6EDED",
"E c #F8F0EF",
"W c #F9F3F3",
"Q c #FFFFFF",
"! c None",
/* pixels */
"!!!!!!!!!!!!!!!!!!!!!!!!!!!!!!!!!!!!!!!!!!!!!!!!",
"!!!!!!!!!!!!!!!!!!!!!!!!!!!!!!!!!!!!!!!!!!!!!!!!",
"!!!!!!!!!!!!!!!!!!!!!!!!!!!!!!!!!!!!!!!!!!!!!!!!",
"!!!!!!!!!!!!!!!!!!!!!!!!!!!!!!!!!!!!!!!!!!!!!!!!",
"!!!!!!!!!!!!!!!!!!!!!!!!!!!!!!!!!!!!!!!!!!!!!!!!",
"!!!!!!@##@##$#####+$######@$########$#####!!!!!!",
"!!!!!8SDDDDDSDFFFFFFFFFFFFFFFFFFFFFFSSDDDS8!!!!!",
"!!!!@McvvvvvccvvvvAvnvvvvvAvAvvAvAvvvvvxvcM@!!!!",
"!!!!@AvcvvxvvvvvvvAvbclxccbvvvvvvvvvvvvvccA@!!!!",
"!!!!@nxcxvvvvvvvvvcclllhlllccvvvvvvvvxxvxcA@!!!!",
"!!!!@nxxxxxvvvvvvxlhs07789shlcvvvvvvxvxxxvb@!!!!",
"!!!!@cxxxxxxxxxxxhs0ZPR6RPZ0shxcvxxxxxxxxxb@!!!!",
"!!!!@czxxxvxxxxzh9wTQQQ6QQQTw9hzxxxxxxxxzxc@!!!!",
"!!!!@bzzxzzxzxzh9mEQQEV6VRQQWm9hzxxxxxzzzzc@!!!!",
"!!!!@clzzzzzzzka8EQQQVHEHVQQQE8sjzxzxzzzzzc@!!!!",
"!!!!@czzzzzzzzf7KQQQQ8WQW8QQQQK7fzzzzzzzzkc@!!!!",
"!!!!@ckkkzkzzhpqWQQQQ1QQQ1QQQQWqshkzzzzjzzc@!!!!",
"!!!!@cjkkkkzkf7GQQQQQ1QQQ1QQQQQH7fklzjzjjjx@!!!!",
"!!!!@lgkkkkkjd7LQQQQQ6WQW5QQQQQL7dhkzjjzkkx@!!!!",
"!!!!@cjjjjjkjp1UQQQQQBHEJBQQQQQU3sgkjjjjjjl@!!!!",
"!!!!@lkjjgjjgp:EQQQQQEB:BEQQQQQE:shjjjjjjjz@!!!!",
"!!!!@zjjjjjjhu:QQQQQQQQ:QQQQQQQQ:ufjjjgjjgl@!!!!",
"!!!!@lggggggfu:QQQQQQQQ;QQQQQQQQ;ufjjgggggl@!!!!",
"!!!!@zggggjgap;QQQQQQQQwQQQQQQQQ>ufjjgggggl@!!!!",
"!!!!@lgfggggft-QQQQQQQQQQQQQQQQQ;ufgggggggl@!!!!",
"!!!!@hffffggat-QQQQQQQQQQQQQQQQQ=udggffgfal+!!!!",
"!!!!+kffffffa4-QQQQQQQQQQQQQQQQQ=7dfffffffl+!!!!",
"!!!!@hffffffa4=QQQQQQQQQQQQQQQQQ=7iffffffaj+!!!!",
"!!!!+haaaaffp4=QQQQQQQQQQQQQQQQQ*2iffafaafj+!!!!",
"!!!!+jiaaaaai4=EQQQQQQQQQQQQQQQE=uififaaiah+!!!!",
"!!!!+hiafaaii4=IQQQQQQQQQQQQQQQI=2iaaaaaiaf+!!!!",
"!!!!+giiiiiipt=LQQQQQQQQQQQQQQQL>riiaiiaiif+!!!!",
"!!!!Ofiyiiiayt>CQQQQQQQQQQQQQQQC,tpiifyayyfO!!!!",
"!!!!+dpyiiiiyt,5WQQQQQQQQQQQQQW51tiyiiyiyia+!!!!",
"!!!!+ayiyiyiyp2=JQQQQQQQQQQQQQJ=2yiyyiyyyyf+!!!!",
"!!!!Oatyyyyyytt,-EQQQQQQQQQQQR-,tyyyiyyyyyf+!!!!",
"!!!!+ayyyyyyyyr2=eEQQQQQQQQQEe=2ttyyytyyytaO!!!!",
"!!!!Oitttyrytyt2<=5YQQQQQQQY5=,rttyyttyrttiO!!!!",
"!!!!Oirtttryrtytr<=*NLTQRLN*=<rttytttttrttpO!!!!",
"!!!!Oprrtryrttttrr<>=&%%%&=><rrrttttttrrrriO!!!!",
"!!!!oprrrrrrrrtrttr2<<,>,,<2rrtrrttrrrrrrruO!!!!",
"!!!!otrrrrrrrrtrrrrrrr22rrrrrrrrrrrrrrrrrrtO!!!!",
"!!!!Xtrrrr2rrrrrrrrrrrrrrrrrrrrrrrrrrrrrr2tO!!!!",
"!!!! $spiasssssasssspasssssfssssssssapssap$ !!!!",
"!!!!! .XXXXXXXXXXXXXXXXX.XXXXXXXXXXXXXXXX. !!!!!",
"!!!!!!!!!!!!!!!!!!!!!!!!!!!!!!!!!!!!!!!!!!!!!!!!",
"!!!!!!!!!!!!!!!!!!!!!!!!!!!!!!!!!!!!!!!!!!!!!!!!",
"!!!!!!!!!!!!!!!!!!!!!!!!!!!!!!!!!!!!!!!!!!!!!!!!"
};
