/* XPM */
static char *panel[] = {
/* columns rows colors chars-per-pixel */
"48 48 136 2 ",
"   c #1D222D",
".  c #1F2431",
"X  c #252525",
"o  c gray15",
"O  c #262729",
"+  c gray16",
"@  c gray17",
"#  c gray19",
"$  c #323232",
"%  c gray20",
"&  c #353535",
"*  c gray21",
"=  c #2E344C",
"-  c #2E344E",
";  c #2E354E",
":  c #303650",
">  c #313750",
",  c #343A52",
"<  c #373D55",
"1  c #383E57",
"2  c #393F58",
"3  c #3A4059",
"4  c #3C425A",
"5  c #475581",
"6  c #4E5C8C",
"7  c #4F5D8D",
"8  c #4F5D8E",
"9  c #505F8E",
"0  c #465591",
"q  c #475791",
"w  c #475793",
"e  c #475893",
"r  c #485891",
"t  c #485892",
"y  c #495893",
"u  c #4A5992",
"i  c #4F5F91",
"p  c #495A94",
"a  c #4A5A94",
"s  c #4A5B96",
"d  c #4C5B96",
"f  c #4C5D97",
"g  c #4D5D97",
"h  c #4D5E97",
"j  c #4E5E98",
"k  c #4E5F98",
"l  c #4E5F9A",
"z  c #505F90",
"x  c #52639B",
"c  c #56679E",
"v  c #58689F",
"b  c #596AA0",
"n  c #596AA2",
"m  c #5A6BA2",
"M  c #5A6AA3",
"N  c #6278CB",
"B  c #6279CB",
"V  c #6479CA",
"C  c #647ACB",
"Z  c #657ACB",
"A  c #6279CC",
"S  c #6379CC",
"D  c #637ACC",
"F  c #637ACD",
"G  c #657ACC",
"H  c #657BCC",
"J  c #647ACD",
"K  c #647BCD",
"L  c #667BCC",
"P  c #657BCE",
"I  c #667CCD",
"U  c #677CCD",
"Y  c #677DCD",
"T  c #657CCE",
"R  c #677DCE",
"E  c #667CCF",
"W  c #667DCF",
"Q  c #677DCF",
"!  c #687DCE",
"~  c #687ECE",
"^  c #687ECF",
"/  c #677ED0",
"(  c #687FD0",
")  c #687FD1",
"_  c #6880D1",
"`  c #6980D1",
"'  c #6980D2",
"]  c #6981D2",
"[  c #6A81D2",
"{  c #6A81D3",
"}  c #6A82D3",
"|  c #6B82D3",
" . c #6B82D4",
".. c #6B83D4",
"X. c #6C83D4",
"o. c #6C83D5",
"O. c #6C84D5",
"+. c #6D84D5",
"@. c #6D85D5",
"#. c #6D85D6",
"$. c #6E85D6",
"%. c #6E86D6",
"&. c #6E86D7",
"*. c #6F86D7",
"=. c #6F87D7",
"-. c #6F87D8",
";. c #7087D8",
":. c #7088D8",
">. c #7188D9",
",. c #7189D9",
"<. c #7189DA",
"1. c #728ADA",
"2. c #738BDB",
"3. c #748CDC",
"4. c #758DDD",
"5. c #758DDE",
"6. c #768EDE",
"7. c #768EDF",
"8. c #778FDF",
"9. c #7790DE",
"0. c #778FE0",
"q. c #7890E0",
"w. c #7890E1",
"e. c #7991E1",
"r. c #7991E2",
"t. c #7A92E2",
"y. c #7A92E3",
"u. c #7B93E3",
"i. c #7B93E4",
"p. c #7C94E4",
"a. c #7C94E5",
"s. c #7D95E5",
"d. c #7D95E6",
"f. c #7E96E6",
"g. c #7E96E7",
"h. c None",
/* pixels */
"h.h.h.h.h.h.h.h.h.h.h.h.h.h.h.h.h.h.h.h.h.h.h.h.h.h.h.h.h.h.h.h.h.h.h.h.h.h.h.h.h.h.h.h.h.h.h.h.",
"h.h.h.h.h.h.h.h.h.h.h.h.h.h.h.h.h.h.h.h.h.h.h.h.h.h.h.h.h.h.h.h.h.h.h.h.h.h.h.h.h.h.h.h.h.h.h.h.",
"h.h.h.h.h.h.h.h.h.h.h.h.h.h.h.h.h.h.h.h.h.h.h.h.h.h.h.h.h.h.h.h.h.h.h.h.h.h.h.h.h.h.h.h.h.h.h.h.",
"h.h.h.h.h.h.h.h.h.h.h.h.h.h.h.h.h.h.h.h.h.h.h.h.h.h.h.h.h.h.h.h.h.h.h.h.h.h.h.h.h.h.h.h.h.h.h.h.",
"h.h.h.h.h.h.h.h.h.h.h.h.h.h.h.h.h.h.h.h.h.h.h.h.h.h.h.h.h.h.h.h.h.h.h.h.h.h.h.h.h.h.h.h.h.h.h.h.",
"h.h.h.h.h.h.= = = - - - - - - - - - - - - - : = = : = = = : = = - - - - - - - - - - h.h.h.h.h.h.",
"h.h.h.h.h.O X X X X X X X X X X X X X X o X X X o X X X X X o X X X X X X X X X X X O h.h.h.h.h.",
"h.h.h.h.> X O X o o o o o o o X o o o o o o o o o O o o o o o O o o o o o o o X o o o - h.h.h.h.",
"h.h.h.h.> + + + @ + @ @ @ @ @ @ @ @ @ @ @ @ @ @ @ @ @ @ @ @ @ @ @ @ @ @ @ @ @ @ @ @ + > h.h.h.h.",
"h.h.h.h., # $ # $ # # $ # # # # # # # $ # # # # # # # $ # # # # # # # # # # # # # # # , h.h.h.h.",
"h.h.h.h.< $ $ $ $ $ $ $ $ $ $ % $ $ $ $ $ $ $ $ $ $ $ $ $ $ $ $ $ $ $ % $ $ $ $ $ $ $ < h.h.h.h.",
"h.h.h.h.2 % % & % % % $ % % % % $ $ $ & $ $ & $ $ % % % % % $ $ % % % % % % % % % % % 2 h.h.h.h.",
"h.h.h.h.2 & & & & & & & & & & & & & & & & & & & & & & & & & & & & & & & & & & & & & & 2 h.h.h.h.",
"h.h.h.h.3 & * & & & * * * * * * * * * * * * * * * * * * * * * * * * * * * * * * & * * 3 h.h.h.h.",
"h.h.h.h.4 & & & * * * * * & * * * & * * * * * * * * * * * & * * & * * * * * & * & & * 4 h.h.h.h.",
"h.h.h.h.u V H H H H H H H U U H I L I I I I I I I I I I I L I I U H U H H H V H H H N u h.h.h.h.",
"h.h.h.h.u V H H U H H H H U U H Y Y Y Y I I I Y Y Y I ` I Y Y Y U U U H H U H H H H H y h.h.h.h.",
"h.h.h.h.u H H H U U U P ( U ( ( Y Y ( Y _ ' _ Y Y ` I / _ Y Y Y Y I ( U ( U U H U H U y h.h.h.h.",
"h.h.h.h.0 F N F H S F F H H F F H F I H F F F F I F F F F F I H F F F F H F S S F N N 0 h.h.h.h.",
"h.h.h.h.0 N F F J H H F H P P H / H / I T I I F I / I I / H / I / P I F F H F H N V N y h.h.h.h.",
"h.h.h.h.w H P F P P P P F / H / / P / / / / / / / / / / / I / / / / H F I F / F H F F w h.h.h.h.",
"h.h.h.h.w P P / P P / / / / / / / / / / / / / / / / / / / / / / / I / / / / P I I I H w h.h.h.h.",
"h.h.h.h.w P / P / / / / / / ` ` / / ' / / / ' ' / / ' / / ' / / / ' / / / / / / / / P p h.h.h.h.",
"h.h.h.h.p / / / / ( ( / ` ` ` ` ' ' ' ' / ' ' ' ' ' ' ' ' ' ' / ' ' ' ' / / ` ` / / / e h.h.h.h.",
"h.h.h.h.p / ( ( ` ` ` ' ' ' ` ' #.' ` ` ' ....' ' ......' ' ' ..` ` ` ` ` ' ` ` ) ) ( p h.h.h.h.",
"h.h.h.h.s ` ` ` ` ` ' ' ' #.` +.' ' ..........' ............' ..X.` #.` ' ' ' ' ' ( ( p h.h.h.h.",
"h.h.h.h.j ' ' ' ` ` X.X.#.#.#.` #.#...#.#.#.#.+.....&...' +.#.#.X.X.` X.#.` ' ' ' ' ` j h.h.h.h.",
"h.h.h.h.j ' ' +.X.X.X.X.+.' +.+.+.+.#.#.#.#.#.#.&...&...#.#.+.#.#.#.#.X.+.+.#.' +.+.` h h.h.h.h.",
"h.h.h.h.j #.#.` X.%.X.X.#.#.#.;.#.#.;.#.#.&.&.&.#.#.#.;.#.#.#.#.#.#.#.#.+.+.+.+.' +.' j h.h.h.h.",
"h.h.h.h.h ' #.#.%.#.#.#.;.#.#.;.;.#.;.;.:.:.:.:.:.:.:.:.:.:.:.;.>.#.#.;.#.#.#.#.#.#.+.j h.h.h.h.",
"h.h.h.h.h #.#.#.%.#.#.;.;.#.:.:.:.:.:.:.:.:.:.:.:.:.:.:.:.:.:.:.:.:.#.;.;.#.#.#.#.#.+.j h.h.h.h.",
"h.h.h.h.j #.#.;.#.;.:.:.:.:.:.:.:.:.:.:.:.3.:.:.:.:.:.2.:.:.:.:.:.:.:.;.;.;.;.#.>.&.#.j h.h.h.h.",
"h.h.h.h.j >.#.>.>.;.:.:.:.:.:.3.:.2.2.:.2.2.:.2.:.>.:.2.4.>.:.>.>.:.:.2.:.:.:.:.:.:.>.j h.h.h.h.",
"h.h.h.h.x >.:.:.:.:.:.:.6.:.:.6.2.2.2.2.2.2.2.2.4.4.:.4.:.4.4.4.2.:.:.2.4.:.:.:.:.:.>.x h.h.h.h.",
"h.h.h.h.c :.:.:.:.:.2.6.6.:.3.6.4.2.2.4.4.4.4.4.4.4.4.4.:.4.4.4.6.:.6.2.2.:.2.:.:.:.:.v h.h.h.h.",
"h.h.h.h.v :.6.:.6.2.6.:.:.6.:.6.4.4.4.4.4.4.4.6.6.6.4.4.4.4.4.4.6.4.2.4.6.:.4.2.4.:.:.b h.h.h.h.",
"h.h.h.h.v 2.2.2.2.2.2.6.6.6.6.6.8.6.6.6.8.9.9.9.q.6.q.8.8.6.4.6.6.4.6.6.3.2.:.6.2.2.:.v h.h.h.h.",
"h.h.h.h.v 2.2.2.6.6.6.6.6.6.6.0.8.q.8.8.q.w.w.w.q.q.9.8.8.8.q.q.6.0.6.6.6.6.6.6.2.6.2.b h.h.h.h.",
"h.h.h.h.b 3.6.6.6.6.6.8.9.9.w.w.q.q.q.9.w.w.w.w.q.w.w.w.q.q.q.q.0.w.8.8.8.6.6.6.6.6.6.b h.h.h.h.",
"h.h.h.h.m 6.6.6.6.6.8.w.w.w.w.w.w.u.w.u.u.u.u.w.w.a.u.u.u.q.i.q.w.w.w.w.8.8.8.6.0.2.6.b h.h.h.h.",
"h.h.h.h.b 6.8.w.6.w.9.u.w.w.u.w.u.w.s.u.u.u.u.u.u.u.u.u.s.w.i.w.u.w.u.w.w.9.9.w.0.6.6.M h.h.h.h.",
"h.h.h.h.M 8.9.9.w.w.w.u.u.u.u.u.w.s.s.u.u.s.s.s.s.u.s.u.u.a.a.i.u.u.u.w.u.u.w.w.0.0.9.m h.h.h.h.",
"h.h.h.h.z w.w.w.w.w.u.u.u.u.u.s.s.s.s.s.s.s.s.s.s.s.s.s.s.s.s.a.s.u.u.u.u.u.w.w.w.w.w.z h.h.h.h.",
"h.h.h.h.. 9.w.w.u.u.u.u.s.s.s.s.s.s.g.g.s.g.g.g.g.g.g.g.g.s.g.s.s.s.s.s.u.u.u.w.w.w.9.. h.h.h.h.",
"h.h.h.h.h.  5 7 7 7 7 7 9 9 9 9 9 9 9 9 9 z z z z z z 9 9 9 9 9 9 9 9 9 7 7 7 7 7 5   h.h.h.h.h.",
"h.h.h.h.h.h.h.h.h.h.h.h.h.h.h.h.h.h.h.h.h.h.h.h.h.h.h.h.h.h.h.h.h.h.h.h.h.h.h.h.h.h.h.h.h.h.h.h.",
"h.h.h.h.h.h.h.h.h.h.h.h.h.h.h.h.h.h.h.h.h.h.h.h.h.h.h.h.h.h.h.h.h.h.h.h.h.h.h.h.h.h.h.h.h.h.h.h.",
"h.h.h.h.h.h.h.h.h.h.h.h.h.h.h.h.h.h.h.h.h.h.h.h.h.h.h.h.h.h.h.h.h.h.h.h.h.h.h.h.h.h.h.h.h.h.h.h."
};
