/* XPM */
static char *theme[] = {
/* columns rows colors chars-per-pixel */
"48 48 93 2 ",
"   c #4B3528",
".  c #4F382A",
"X  c #674732",
"o  c #6A4833",
"O  c #734F37",
"+  c #744F38",
"@  c #76513A",
"#  c #79543D",
"$  c #7C5940",
"%  c #9C684B",
"&  c #A56C4D",
"*  c #A96E4F",
"=  c #A56E51",
"-  c #AA6F50",
";  c #AB7253",
":  c #AC765B",
">  c #AD795E",
",  c #B37554",
"<  c #B67857",
"1  c #BB7A56",
"2  c #B17758",
"3  c #B47A5C",
"4  c #BC7D5B",
"5  c #AE7C63",
"6  c #B37E62",
"7  c #BB7F60",
"8  c #C37E59",
"9  c #BF805E",
"0  c #B48166",
"q  c #BD8263",
"w  c #B4846B",
"e  c #B8876F",
"r  c #B78A73",
"t  c #B98B73",
"y  c #B88F7A",
"u  c #BD937D",
"i  c #C5815C",
"p  c #C8845F",
"a  c #C48563",
"s  c #CA8661",
"d  c #C58867",
"f  c #CD8965",
"g  c #C78A68",
"h  c #CA8B6A",
"j  c #D08B67",
"k  c #D28E6A",
"l  c #CD906E",
"z  c #D5916E",
"x  c #D8936F",
"c  c #D59471",
"v  c #DA9572",
"b  c #D79873",
"n  c #DD9A76",
"m  c #DC9C7A",
"M  c #E09D77",
"N  c #E19E79",
"B  c #DFA17F",
"V  c #E3A27B",
"C  c #BE9682",
"Z  c #C09782",
"A  c #C19A85",
"S  c #C49D89",
"D  c #C6A08D",
"F  c #DEA788",
"G  c #CBA793",
"H  c #CCAA99",
"J  c #D0B09F",
"K  c #E1A381",
"L  c #E1B195",
"P  c #EBBB9E",
"I  c #CEB2A1",
"U  c #D0B4A5",
"Y  c #D6BAAC",
"T  c #D8BEAF",
"R  c #D7BEB1",
"E  c #DAC1B5",
"W  c #DBC4B9",
"Q  c #DEC8BC",
"!  c #DECBC1",
"~  c #E1D0C6",
"^  c #E5D4CC",
"/  c #E9DBD4",
"(  c #EBDFD8",
")  c #EDE2DC",
"_  c #EFE5E0",
"`  c #F0E6E1",
"'  c #F3EAE6",
"]  c #F5EFEB",
"[  c #F7F1EE",
"{  c #F9F5F3",
"}  c #FBF9F7",
"|  c #FFFFFF",
" . c None",
/* pixels */
" . . . . . . . . . . . . . . . . . . . . . . . . . . . . . . . . . . . . . . . . . . . . . . . .",
" . . . . . . . . . . . . . . . . . . . . . . . . . . . . . . . . . . . . . . . . . . . . . . . .",
" . . . . . . . . . . . . . . . . . . . . . . . . . . . . . . . . . . . . . . . . . . . . . . . .",
" . . . . . . . . . . . . . . . . . . . . . . . . . . . . . . . . . . . . . . . . . . . . . . . .",
" . . . . . . . . . . . . . . . . . . . . . . . . . . . . . . . . . . . . . . . . . . . . . . . .",
" . . . . . .# $ # # $ $ $ $ $ $ $ $ # % $ $ # % $ $ $ % $ $ $ $ $ # $ $ $ $ $ $ $ #  . . . . . .",
" . . . . .0 L P P P P P P P P P P P P P P P P P P P P P P P P P P P P P P P P L P L 0  . . . . .",
" . . . .# F m N N V V V V V V V V V K V V V K V V V V V F V V V V V V V V V V V N V F #  . . . .",
" . . . .# K M N N V N V N V V V V V V V V V V V V F V V V V V V V V N V n V V M N n K @  . . . .",
" . . . .# K M n M N M M N N N V V V V V V V V V V V V V V V V V V V n b b b n n m m K $  . . . .",
" . . . .# K n n M N n N M N N N N V V N V V V N V V V V V V V M m b l l d g c b n M K @  . . . .",
" . . . .# m n n n n n n M M N M N M N V N N N N V V V V M M M n b l q w G 0 g c v v K $  . . . .",
" . . . .# B n v n n M n n n n M M n M M M M M M M M M M M M n z l q S } | T 6 l v n m #  . . . .",
" . . . .# m v v n v v n n n n n n M n n n M M n M M M n n b z h 7 H | | | / 6 h x v m #  . . . .",
" . . . .# m v v v v n n v v n n n n n n n n n n n n n n b l g 0 Y | | | ' 0 a h x v m #  . . . .",
" . . . .# m x v v v v v v n v n n v n n v n n n n n b b h i 0 Q | | | [ r a h c v v m @  . . . .",
" . . . .# m v x x v v v v v v v x v n v v v n v n v z h a 6 ^ | | | } u 7 f z v z v m #  . . . .",
" . . . .# m z x x x x v v v v x x v v v v v v v c k h q 6 ) | | | | D 6 g k z v x z v #  . . . .",
" . . . .@ v z z z x x x x x v v x v v v v v v z k d 7 e ' | | | | J 3 d l z z z z z m #  . . . .",
" . . . .# v z z z x x z x z z v x x x x c x k j d 6 u [ | | | | R > d h z z z z z z v #  . . . .",
" . . . .# v z z z z z z z z z x x x z z z k h a 3 S } | | | | ^ > a f k x x x x z z v #  . . . .",
" . . . .# v k z z z z z z z z z z x z h h a 7 > W | | | | | ) > q f k z k k k k k z c @  . . . .",
" . . . .# z k k z k k z z k z z z k j a 7 : y ' | | | | | [ 0 7 s j k k k x k x k z v #  . . . .",
" . . . .# x k k k k k k z k z k j j a > S / | | | | | | } t 3 a j k x x k k k k k k c @  . . . .",
" . . . .$ c h k k k k k k k h j d a q 3 A } | | | | | | A 2 a h k k k k k k k k j j c @  . . . .",
" . . . .@ c j j j j k k k j s a 3 ; 0 : ; C } | | | | H 2 a h j k k k j k k k j j j c @  . . . .",
" . . . .@ z j j j j j j j s a 3 e ` | / 5 ; C | | | R ; 7 s j j k k j j k j j j j j c @  . . . .",
" . . . .@ z j j j j j j j i 3 w [ | ) | [ r ; C | ) ; 7 s j j j j j j j j j j j j j c +  . . . .",
" . . . .@ l f f f f j f s 4 ; ( | ' r | | ] 5 ; S A 2 a s j j j j j j j f f f f j f l @  . . . .",
" . . . .@ l f f f f f f a 2 u | | C u | | | / ; 2 ; 3 s j j j j j f f f f f f f s j k @  . . . .",
" . . . .@ l f f f f f a 4 ; ^ | / = Y | | | | u < 4 a s j s s j f f f f f f f f s f l @  . . . .",
" . . . .+ j p f s f s a 2 w | | r 5 { | | | | G 2 a s j s j f s f s f f f f f s f s j @  . . . .",
" . . . .+ h s s s s i 4 ; Q | ~ = / | | | | | t < i s s f f f s s f s f f s s f p s j O  . . . .",
" . . . .+ j s p s s i < : } | r R | | | | | / = 4 a s s s f p f s s s s s s p s f p j +  . . . .",
" . . . .+ h p s p i 4 ; U | ) I | | | | | } y , 4 p s s f p f p s s s p p p p p p p f +  . . . .",
" . . . .+ s p a i 4 ; 5 } | _ | | | | | } C ; 1 i s s s p p p p p s p p p p p p p p f @  . . . .",
" . . . .@ f i i 4 ; = / | | | | } | | } u * < 9 i s p p p p p p p p p p p p p p i i h +  . . . .",
" . . . .+ s i i 1 & W | | | | | [ Q D : * , 9 i p i p p p p p p p p p p i i p p i i g +  . . . .",
" . . . .+ s i 4 < & : u u y r w & & * , 1 9 i i i p i p i i p p p p i i i p 8 8 i i s +  . . . .",
" . . . .+ a i 8 8 , , ; ; ; ; ; , , 1 1 i i i i i p i i i i i i i i i i i i 8 p i i s O  . . . .",
" . . . .O s 8 8 8 1 1 1 1 1 1 1 1 4 8 i i i i i i i i i i 8 8 i i i i 8 i 8 8 i i 8 a O  . . . .",
" . . . .O a 8 8 8 8 8 8 8 8 8 8 8 i i i i 8 i i 8 i 8 i i i i 8 8 8 8 i 8 i 8 8 8 8 i O  . . . .",
" . . . .o i 8 8 8 i 4 8 8 i 8 8 i i i i 8 i 9 i 8 8 i i 8 8 i 8 8 8 8 8 8 8 8 8 8 8 9 O  . . . .",
" . . . .. % a g s g g h h g g s g g d h s s s g g s g g d h g h h h d h d g g g s a % .  . . . .",
" . . . . .  X o o o o o X o o o o o o o o o o o o o o o o o o o o o o o o o o o o X    . . . . .",
" . . . . . . . . . . . . . . . . . . . . . . . . . . . . . . . . . . . . . . . . . . . . . . . .",
" . . . . . . . . . . . . . . . . . . . . . . . . . . . . . . . . . . . . . . . . . . . . . . . .",
" . . . . . . . . . . . . . . . . . . . . . . . . . . . . . . . . . . . . . . . . . . . . . . . ."
};
